<svg width="120" height="14" viewBox="0 0 120 14" fill="none" xmlns="http://www.w3.org/2000/svg">
<g clip-path="url(#clip0_134_26)">
<path d="M67.4393 4.8223C67.4393 5.22739 67.1111 5.55574 66.7062 5.55574C66.3013 5.55574 65.9731 5.22739 65.9731 4.8223C65.9731 4.41722 66.3013 4.08887 66.7062 4.08887C67.1111 4.08887 67.4393 4.41722 67.4393 4.8223Z" fill="#D9DAF0"/>
<path d="M64.562 4.8223C64.562 5.22739 64.2338 5.55574 63.8289 5.55574C63.424 5.55574 63.0959 5.22739 63.0959 4.8223C63.0959 4.41722 63.424 4.08887 63.8289 4.08887C64.2338 4.08887 64.562 4.41722 64.562 4.8223Z" fill="#D9DAF0"/>
<path d="M66.0307 6.15299C66.0307 6.55808 65.7025 6.88643 65.2976 6.88643C64.8927 6.88643 64.5646 6.55808 64.5646 6.15299C64.5646 5.7479 64.8927 5.41956 65.2976 5.41956C65.7025 5.41956 66.0307 5.7479 66.0307 6.15299Z" fill="#D9DAF0"/>
<path d="M66.0307 3.47318C66.0307 3.87827 65.7025 4.20662 65.2976 4.20662C64.8927 4.20662 64.5646 3.87827 64.5646 3.47318C64.5646 3.06809 64.8927 2.73975 65.2976 2.73975C65.7025 2.73975 66.0307 3.06809 66.0307 3.47318Z" fill="#D9DAF0"/>
<path d="M69.827 6.25776C69.6986 4.71753 69.5835 4.14913 69.5024 3.54145C69.3636 2.51987 68.9813 1.63715 68.3583 1.00061C67.7378 0.361515 66.8738 -0.00264587 65.8972 1.44749e-05C64.8656 1.44749e-05 63.9337 0.440097 63.2766 1.13424H56.7208C56.0637 0.437539 55.1316 1.44749e-05 54.1 1.44749e-05C53.1234 -0.00264587 52.2594 0.361515 51.639 1.00061C51.0158 1.63715 50.6336 2.51987 50.4949 3.54145C50.4111 4.14913 50.2959 4.71763 50.1702 6.25776C50.0838 7.30031 50 8.28259 50 9.1732C50 9.66833 50.0262 10.1318 50.0968 10.5667C50.2016 11.2137 50.4084 11.8057 50.8143 12.2745C51.0158 12.5077 51.2646 12.7015 51.5552 12.8456C51.8459 12.9897 52.173 13.0839 52.5345 13.1285C52.6471 13.1416 52.757 13.1495 52.8669 13.1495C53.3565 13.1521 53.8147 13.0002 54.197 12.7383C54.7755 12.3454 55.1997 11.7455 55.5636 11.0278C55.8751 10.407 56.1396 9.68664 56.3883 8.9087H63.6091C63.952 9.99054 64.329 10.9518 64.8213 11.7036C65.0962 12.1227 65.4155 12.4789 65.8005 12.7383C66.1828 12.9977 66.6409 13.1495 67.1305 13.1495C67.2405 13.1495 67.3504 13.1416 67.463 13.1285C67.9447 13.0683 68.3688 12.9215 68.7197 12.6832C68.9815 12.5077 69.2014 12.2824 69.3717 12.0284C69.6282 11.6459 69.7827 11.2032 69.8743 10.7239C69.9659 10.2445 70 9.72583 70 9.16788C69.9974 8.28249 69.9136 7.29755 69.8272 6.25766L69.827 6.25776ZM68.8661 10.3964C68.7797 10.9334 68.6201 11.3263 68.3923 11.5857C68.2772 11.7167 68.1463 11.8215 67.976 11.9079C67.8058 11.9917 67.5964 12.0572 67.3319 12.0913C67.2612 12.0992 67.1958 12.1044 67.1329 12.1044C66.8501 12.1018 66.6197 12.0284 66.3867 11.8712C66.0385 11.6407 65.6877 11.1902 65.3709 10.5588C65.0541 9.93017 64.7661 9.12869 64.4964 8.23277L64.3838 7.86083H55.6158L55.5032 8.23277C55.1419 9.42716 54.7492 10.4514 54.3015 11.1272C54.0789 11.4652 53.846 11.7139 53.6129 11.8711C53.3773 12.0257 53.1495 12.1016 52.8667 12.1043C52.8039 12.1043 52.7358 12.0991 52.6677 12.0912C52.3143 12.0467 52.0603 11.9471 51.864 11.8161C51.7173 11.7166 51.5995 11.5962 51.4974 11.4442C51.3456 11.2163 51.2277 10.9124 51.1545 10.5274C51.0813 10.1424 51.0471 9.68398 51.0498 9.17054C51.0498 8.34808 51.131 7.38411 51.2174 6.34157C51.3431 4.82486 51.4478 4.33249 51.5368 3.68019C51.6521 2.82888 51.9609 2.16881 52.3929 1.72873C52.8249 1.29131 53.3774 1.04768 54.1051 1.04512C54.9063 1.04512 55.6184 1.41184 56.0897 1.98811L56.2467 2.17935H63.7581L63.9151 1.98811C64.3864 1.41184 65.0985 1.04512 65.8997 1.04512C66.6275 1.04768 67.1799 1.29131 67.612 1.72873C68.0413 2.16881 68.3503 2.82888 68.4681 3.68019C68.5571 4.33239 68.6618 4.82486 68.7875 6.34157C68.8739 7.38411 68.955 8.34542 68.955 9.17054C68.9498 9.62893 68.9263 10.0402 68.866 10.3964H68.8661Z" fill="#D9DAF0"/>
<path d="M53.0108 3.2663C52.7019 3.63035 52.5159 4.09929 52.5159 4.61274C52.5159 5.16016 52.728 5.65529 53.0736 6.02723L54.4219 4.67822L53.0108 3.2663Z" fill="#D9DAF0"/>
<path d="M53.3198 6.25246C53.6732 6.5275 54.1131 6.69255 54.5948 6.69255C55.1079 6.69255 55.5766 6.50663 55.9406 6.19752L54.6577 4.914L53.3199 6.25257L53.3198 6.25246Z" fill="#D9DAF0"/>
<path d="M56.0087 3.08829C55.6369 2.74255 55.142 2.53033 54.5949 2.53033C54.0818 2.53033 53.6131 2.71625 53.2491 3.02536L54.6577 4.43729L56.0087 3.08829Z" fill="#D9DAF0"/>
<path d="M54.896 4.6756L56.1788 5.95911C56.4878 5.59506 56.6736 5.12612 56.6736 4.61267C56.6736 4.13074 56.5087 3.69066 56.2338 3.33704L54.896 4.6756Z" fill="#D9DAF0"/>
</g>
<defs>
<clipPath id="clip0_134_26">
<rect width="20" height="13.1495" fill="white" transform="translate(50)"/>
</clipPath>
</defs>
</svg>
