<svg width="50" height="50" viewBox="0 0 50 50" fill="none" xmlns="http://www.w3.org/2000/svg">
<rect width="50" height="50" rx="8" fill="#505050"/>
<g clip-path="url(#clip0_31_32)">
<path d="M36.7369 22.3933C36.7369 23.0143 36.2338 23.5178 35.613 23.5178C34.9923 23.5178 34.4891 23.0143 34.4891 22.3933C34.4891 21.7722 34.9923 21.2688 35.613 21.2688C36.2338 21.2688 36.7369 21.7722 36.7369 22.3933Z" fill="#D9DAF0"/>
<path d="M32.3257 22.3933C32.3257 23.0143 31.8225 23.5178 31.2018 23.5178C30.581 23.5178 30.0779 23.0143 30.0779 22.3933C30.0779 21.7722 30.581 21.2688 31.2018 21.2688C31.8225 21.2688 32.3257 21.7722 32.3257 22.3933Z" fill="#D9DAF0"/>
<path d="M34.5774 24.4334C34.5774 25.0545 34.0742 25.5579 33.4535 25.5579C32.8327 25.5579 32.3296 25.0545 32.3296 24.4334C32.3296 23.8124 32.8327 23.309 33.4535 23.309C34.0742 23.309 34.5774 23.8124 34.5774 24.4334Z" fill="#D9DAF0"/>
<path d="M34.5774 20.3249C34.5774 20.946 34.0742 21.4494 33.4535 21.4494C32.8327 21.4494 32.3296 20.946 32.3296 20.3249C32.3296 19.7039 32.8327 19.2005 33.4535 19.2005C34.0742 19.2005 34.5774 19.7039 34.5774 20.3249Z" fill="#D9DAF0"/>
<path d="M40.3976 24.5941C40.2008 22.2326 40.0243 21.3612 39.8999 20.4296C39.6872 18.8633 39.1011 17.51 38.1459 16.5341C37.1946 15.5543 35.87 14.9959 34.3728 15C32.7912 15 31.3623 15.6747 30.3549 16.739H20.3039C19.2965 15.6708 17.8675 15 16.2859 15C14.7887 14.9959 13.4641 15.5543 12.5128 16.5341C11.5574 17.51 10.9713 18.8633 10.7587 20.4296C10.6303 21.3612 10.4536 22.2328 10.2609 24.5941C10.1284 26.1924 10 27.6984 10 29.0638C10 29.8229 10.0401 30.5336 10.1485 31.2003C10.309 32.1922 10.6261 33.0999 11.2484 33.8187C11.5574 34.1762 11.9388 34.4733 12.3844 34.6942C12.83 34.915 13.3316 35.0595 13.8857 35.1279C14.0583 35.148 14.2269 35.1601 14.3954 35.1601C15.146 35.164 15.8484 34.9312 16.4345 34.5296C17.3215 33.9272 17.9719 33.0076 18.5298 31.9072C19.0074 30.9554 19.4128 29.851 19.7942 28.6583H30.8646C31.3904 30.3169 31.9685 31.7908 32.7231 32.9433C33.1446 33.5859 33.6343 34.1319 34.2244 34.5296C34.8105 34.9273 35.513 35.1601 36.2635 35.1601C36.4321 35.1601 36.6007 35.148 36.7733 35.1279C37.5118 35.0355 38.162 34.8106 38.7 34.4452C39.1014 34.1762 39.4385 33.8307 39.6995 33.4412C40.0929 32.8548 40.3297 32.1762 40.4702 31.4412C40.6107 30.7063 40.6629 29.9111 40.6629 29.0557C40.659 27.6983 40.5304 26.1882 40.3979 24.5939L40.3976 24.5941ZM38.9245 30.9393C38.792 31.7625 38.5473 32.3649 38.1981 32.7626C38.0215 32.9634 37.8208 33.124 37.5598 33.2566C37.2989 33.3851 36.9777 33.4855 36.5723 33.5377C36.4639 33.5498 36.3636 33.5578 36.2672 33.5578C35.8336 33.5539 35.4804 33.4412 35.1232 33.2003C34.5893 32.8468 34.0515 32.1561 33.5657 31.1882C33.0801 30.2244 32.6386 28.9956 32.2251 27.622L32.0525 27.0518H18.6099L18.4373 27.622C17.8833 29.4532 17.2812 31.0235 16.5948 32.0596C16.2536 32.5778 15.8964 32.9591 15.5391 33.2001C15.1778 33.4371 14.8286 33.5535 14.3951 33.5576C14.2988 33.5576 14.1944 33.5496 14.09 33.5375C13.5481 33.4693 13.1588 33.3167 12.8577 33.1159C12.6329 32.9632 12.4523 32.7786 12.2958 32.5456C12.0629 32.1963 11.8823 31.7304 11.7701 31.14C11.6578 30.5497 11.6054 29.8469 11.6095 29.0598C11.6095 27.7988 11.734 26.3209 11.8665 24.7225C12.0592 22.3972 12.2197 21.6423 12.3562 20.6423C12.5329 19.3371 13.0064 18.3251 13.6687 17.6504C14.331 16.9798 15.178 16.6062 16.2937 16.6023C17.5221 16.6023 18.6138 17.1646 19.3363 18.0481L19.5772 18.3413H31.0931L31.3339 18.0481C32.0564 17.1646 33.1482 16.6023 34.3765 16.6023C35.4924 16.6062 36.3393 16.9798 37.0017 17.6504C37.66 18.3251 38.1336 19.3371 38.3143 20.6423C38.4507 21.6422 38.6112 22.3972 38.8039 24.7225C38.9364 26.3209 39.0608 27.7947 39.0608 29.0598C39.0528 29.7625 39.0167 30.393 38.9243 30.9393H38.9245Z" fill="#D9DAF0"/>
<path d="M14.616 20.0077C14.1424 20.5659 13.8573 21.2848 13.8573 22.072C13.8573 22.9113 14.1825 23.6704 14.7123 24.2406L16.7795 22.1724L14.616 20.0077Z" fill="#D9DAF0"/>
<path d="M15.0897 24.5859C15.6316 25.0076 16.306 25.2606 17.0445 25.2606C17.8311 25.2606 18.5497 24.9756 19.1077 24.5017L17.1409 22.5338L15.0899 24.5861L15.0897 24.5859Z" fill="#D9DAF0"/>
<path d="M19.2121 19.7348C18.6422 19.2047 17.8835 18.8793 17.0446 18.8793C16.258 18.8793 15.5394 19.1644 14.9814 19.6383L17.1409 21.803L19.2121 19.7348Z" fill="#D9DAF0"/>
<path d="M17.5062 22.1683L19.4731 24.1361C19.9467 23.578 20.2316 22.859 20.2316 22.0719C20.2316 21.333 19.9787 20.6583 19.5572 20.1161L17.5062 22.1683Z" fill="#D9DAF0"/>
</g>
<defs>
<clipPath id="clip0_31_32">
<rect width="30.6629" height="20.1601" fill="white" transform="translate(10 15)"/>
</clipPath>
</defs>
</svg>
