<svg width="110" height="110" viewBox="0 0 110 110" fill="none" xmlns="http://www.w3.org/2000/svg">
<g clip-path="url(#clip0_3_7)">
<g clip-path="url(#clip1_3_7)">
<g clip-path="url(#clip2_3_7)">
<g clip-path="url(#clip3_3_7)">
<path d="M0.0274658 54.9763C0.0274658 24.6137 24.6289 9.53674e-07 54.9762 9.53674e-07C85.3236 9.53674e-07 109.925 24.6137 109.925 54.9763C109.925 85.3388 85.3236 109.953 54.9762 109.953C24.6289 109.953 0.0274658 85.3388 0.0274658 54.9763ZM54.9762 109.243C84.9319 109.243 109.216 84.9469 109.216 54.9763C109.216 25.0056 84.9319 0.709709 54.9762 0.709389C25.0206 0.709389 0.736819 25.0053 0.736499 54.9763C0.736499 84.9469 25.0202 109.243 54.9762 109.243Z" fill="#505050"/>
<path d="M54.9762 107.753C84.1096 107.753 107.727 84.1242 107.727 54.9762C107.727 25.8282 84.1096 2.19905 54.9762 2.19905C25.8427 2.19905 2.2254 25.8282 2.2254 54.9762C2.2254 84.1242 25.8427 107.753 54.9762 107.753Z" fill="#505050"/>
<g clip-path="url(#clip4_3_7)">
<g clip-path="url(#clip5_3_7)">
<g clip-path="url(#clip6_3_7)">
<g clip-path="url(#clip7_3_7)">
<g clip-path="url(#clip8_3_7)">
<g clip-path="url(#clip9_3_7)">
<g clip-path="url(#clip10_3_7)">
<path d="M21.781 64.9903C21.1386 64.9903 20.8174 64.718 20.8174 64.1733C20.8174 63.7812 20.9808 63.5115 21.3074 63.3645C21.5796 63.2501 21.9961 63.1466 22.5568 63.054C22.5732 63.0486 22.5949 63.0442 22.6221 63.0409C22.6494 63.0388 22.6782 63.0349 22.7087 63.0295C22.7381 63.0241 22.761 63.0186 22.7773 63.0132C22.8154 62.9968 22.8345 62.9587 22.8345 62.8988L22.8508 62.4739C22.8508 62.1635 22.761 61.9385 22.5813 61.7991C22.4017 61.6607 22.2275 61.5916 22.0587 61.5916C21.6667 61.5916 21.4707 61.755 21.4707 62.0818L21.5034 62.3759C21.5034 62.4848 21.4544 62.5393 21.3564 62.5393C21.2802 62.5393 21.1958 62.5257 21.1033 62.4984C20.9345 62.444 20.8501 62.3514 20.8501 62.2207C20.8501 62.0082 20.9933 61.8051 21.2796 61.6112C21.5649 61.4183 21.8518 61.3219 22.1404 61.3219C22.4289 61.3219 22.6548 61.3492 22.8181 61.4036C22.9815 61.4581 23.1029 61.5191 23.1823 61.5866C23.2607 61.6553 23.3217 61.7468 23.3653 61.8612C23.4197 61.9973 23.4469 62.2109 23.4469 62.5017C23.4469 62.7937 23.4404 63.0524 23.4273 63.2779C23.4132 63.5045 23.4061 63.7103 23.4061 63.8955C23.4061 64.0807 23.4279 64.2316 23.4714 64.3482C23.515 64.4658 23.5667 64.541 23.6266 64.5737C23.6865 64.6063 23.7463 64.6254 23.8062 64.6309C23.9532 64.6417 24.0267 64.6853 24.0267 64.7616C24.0267 64.876 23.8552 64.9332 23.5123 64.9332C23.3707 64.9332 23.2498 64.895 23.1497 64.8188C23.0484 64.7425 22.976 64.6673 22.9325 64.5933C22.8889 64.5203 22.8644 64.4838 22.859 64.4838C22.8535 64.4838 22.8317 64.5018 22.7936 64.5377C22.7555 64.5726 22.7027 64.6145 22.6352 64.6635C22.5666 64.7126 22.4888 64.7616 22.4017 64.8106C22.2002 64.9304 21.9934 64.9903 21.781 64.9903ZM22.7773 63.1684L22.6956 63.1847C22.5704 63.2065 22.4915 63.2201 22.4588 63.2256C22.4262 63.231 22.3499 63.2474 22.2302 63.2746C22.1104 63.3018 22.0277 63.3264 21.9819 63.3481C21.9351 63.3699 21.8698 63.4037 21.7859 63.4494C21.701 63.4963 21.6395 63.5442 21.6014 63.5932C21.5034 63.7458 21.4544 63.9064 21.4544 64.0753C21.4544 64.2441 21.5088 64.3847 21.6177 64.4969C21.7266 64.608 21.8671 64.6635 22.0391 64.6635C22.21 64.6635 22.3461 64.6417 22.4474 64.5982C22.5476 64.5546 22.6221 64.5056 22.6711 64.4511C22.7201 64.3966 22.7583 64.3231 22.7855 64.2305C22.8181 64.127 22.8345 63.9936 22.8345 63.8302V63.2419C22.8345 63.1929 22.8154 63.1684 22.7773 63.1684ZM24.9985 63.1684L24.9903 62.1716C24.9903 62.0409 24.9615 61.9483 24.9038 61.8938C24.8471 61.8394 24.7834 61.8121 24.7127 61.8121C24.533 61.823 24.4432 61.7849 24.4432 61.6978C24.4432 61.6487 24.4759 61.6117 24.5412 61.5866C24.6065 61.5627 24.7045 61.5371 24.8352 61.5098C24.9658 61.4826 25.0611 61.4565 25.121 61.4314C25.1809 61.4074 25.2299 61.3846 25.268 61.3628C25.3061 61.341 25.3333 61.3274 25.3496 61.3219C25.3986 61.3001 25.4558 61.2893 25.5211 61.2893C25.5864 61.2893 25.6191 61.3682 25.6191 61.5262L25.5783 61.8693C25.5783 61.9347 25.5946 61.9674 25.6273 61.9674C25.6327 61.9674 25.6501 61.9467 25.6795 61.9053C25.71 61.865 25.7508 61.816 25.802 61.7582C25.8543 61.7016 25.9185 61.6433 25.9947 61.5834C26.1798 61.4472 26.3987 61.3791 26.6513 61.3791C26.905 61.3791 27.1053 61.4129 27.2523 61.4804C27.3993 61.5491 27.5011 61.6226 27.5577 61.701C27.6154 61.7806 27.6633 61.8541 27.7015 61.9216C27.7396 61.9903 27.7624 62.0246 27.7701 62.0246C27.7788 62.0246 27.8305 61.9685 27.9252 61.8563C28.021 61.7452 28.1571 61.6335 28.3335 61.5213C28.511 61.4102 28.6977 61.3546 28.8937 61.3546C29.2911 61.3546 29.5971 61.4717 29.8116 61.7059C30.0272 61.9401 30.1524 62.2245 30.1872 62.5589C30.2231 62.8944 30.2411 63.2474 30.2411 63.6178V63.8792C30.2411 64.1243 30.2547 64.3013 30.2819 64.4103C30.3092 64.5192 30.3718 64.59 30.4698 64.6227C30.4752 64.6227 30.4997 64.6265 30.5433 64.6341C30.5868 64.6428 30.6249 64.6499 30.6576 64.6554C30.7392 64.6717 30.7801 64.7126 30.7801 64.7779C30.7801 64.8596 30.6902 64.9005 30.5106 64.9005L29.9716 64.8678L29.3837 64.9005C29.253 64.9005 29.1877 64.8716 29.1877 64.8139C29.1877 64.7572 29.2448 64.7071 29.3592 64.6635C29.4735 64.62 29.5415 64.5737 29.5633 64.5246C29.5851 64.4647 29.596 64.3395 29.596 64.1488V64.0181L29.5878 63.1521L29.5633 62.6128C29.5633 62.5529 29.5552 62.4968 29.5388 62.4445C29.5225 62.3933 29.5127 62.3541 29.5094 62.3269C29.5072 62.2996 29.4926 62.267 29.4653 62.2288C29.4381 62.1907 29.4218 62.1662 29.4163 62.1553C29.3946 62.1117 29.351 62.0573 29.2857 61.9919C29.1441 61.823 28.94 61.7386 28.6732 61.7386C28.548 61.7386 28.4173 61.7713 28.2812 61.8367C28.1451 61.902 28.0363 61.969 27.9546 62.0376C27.8729 62.1052 27.8321 62.1498 27.8321 62.1716C27.8321 62.1934 27.8376 62.2343 27.8484 62.2942C27.8702 62.4739 27.8811 62.7817 27.8811 63.2174V63.9119C27.8811 64.1624 27.9165 64.346 27.9873 64.4626C28.058 64.5802 28.2105 64.6554 28.4446 64.688C28.499 64.6935 28.5371 64.7109 28.5589 64.7403C28.5807 64.7708 28.5916 64.797 28.5916 64.8188C28.5916 64.8787 28.5398 64.9086 28.4364 64.9086L27.8403 64.8678L27.0972 64.9086C26.9774 64.9086 26.9175 64.8732 26.9175 64.8024C26.9175 64.7643 26.9284 64.7354 26.9502 64.7158C26.972 64.6973 27.0111 64.6772 27.0678 64.6554C27.1255 64.6336 27.1636 64.6172 27.1821 64.6063C27.2017 64.5955 27.2251 64.5492 27.2523 64.4675C27.2795 64.3858 27.2932 64.304 27.2932 64.2223V64.0671L27.3013 63.7403V63.2419L27.2932 62.8089L27.285 62.7272C27.285 62.4385 27.2115 62.207 27.0645 62.0327C26.9175 61.8584 26.7215 61.7713 26.4765 61.7713C26.2316 61.7713 26.0192 61.8312 25.8396 61.951C25.6599 62.0709 25.5701 62.2098 25.5701 62.3677V64.0181C25.5701 64.2142 25.6055 64.364 25.6763 64.4675C25.747 64.5709 25.826 64.6292 25.9131 64.6423C26.0002 64.6565 26.0791 64.6717 26.1499 64.688C26.2207 64.7044 26.2561 64.7316 26.2561 64.7697C26.2561 64.8188 26.2479 64.8515 26.2316 64.8678C26.2152 64.8841 26.1662 64.8923 26.0846 64.8923L25.3986 64.8678L24.7535 64.8923C24.6228 64.8923 24.5575 64.8515 24.5575 64.7697C24.5575 64.7098 24.6065 64.6717 24.7045 64.6554C24.7426 64.6499 24.7834 64.6265 24.827 64.5851C24.8705 64.5448 24.9097 64.4675 24.9446 64.3531C24.9805 64.2387 24.9985 63.8438 24.9985 63.1684ZM32.299 64.9903C31.6566 64.9903 31.3354 64.718 31.3354 64.1733C31.3354 63.7812 31.4987 63.5115 31.8253 63.3645C32.0975 63.2501 32.514 63.1466 33.0747 63.054C33.0911 63.0486 33.1129 63.0442 33.1401 63.0409C33.1673 63.0388 33.1956 63.0349 33.225 63.0295C33.2555 63.0241 33.2789 63.0186 33.2952 63.0132C33.3333 62.9968 33.3524 62.9587 33.3524 62.8988L33.3687 62.4739C33.3687 62.1635 33.2789 61.9385 33.0992 61.7991C32.9196 61.6607 32.7454 61.5916 32.5766 61.5916C32.1846 61.5916 31.9887 61.755 31.9887 62.0818L32.0213 62.3759C32.0213 62.4848 31.9723 62.5393 31.8743 62.5393C31.7981 62.5393 31.7137 62.5257 31.6212 62.4984C31.4524 62.444 31.368 62.3514 31.368 62.2207C31.368 62.0082 31.5107 61.8051 31.7959 61.6112C32.0823 61.4183 32.3697 61.3219 32.6583 61.3219C32.9468 61.3219 33.1727 61.3492 33.3361 61.4036C33.4994 61.4581 33.6202 61.5191 33.6986 61.5866C33.7781 61.6553 33.8396 61.7468 33.8832 61.8612C33.9376 61.9973 33.9648 62.2109 33.9648 62.5017C33.9648 62.7937 33.9578 63.0524 33.9436 63.2779C33.9305 63.5045 33.924 63.7103 33.924 63.8955C33.924 64.0807 33.9458 64.2316 33.9893 64.3482C34.0329 64.4658 34.0846 64.541 34.1445 64.5737C34.2044 64.6063 34.2643 64.6254 34.3242 64.6309C34.4711 64.6417 34.5446 64.6853 34.5446 64.7616C34.5446 64.876 34.3732 64.9332 34.0302 64.9332C33.8886 64.9332 33.7672 64.895 33.666 64.8188C33.5658 64.7425 33.4939 64.6673 33.4504 64.5933C33.4068 64.5203 33.3823 64.4838 33.3769 64.4838C33.3714 64.4838 33.3497 64.5018 33.3116 64.5377C33.2734 64.5726 33.2201 64.6145 33.1515 64.6635C33.084 64.7126 33.0067 64.7616 32.9196 64.8106C32.7182 64.9304 32.5113 64.9903 32.299 64.9903ZM33.2952 63.1684L33.2136 63.1847C33.0884 63.2065 33.0094 63.2201 32.9767 63.2256C32.9441 63.231 32.8679 63.2474 32.7481 63.2746C32.6283 63.3018 32.545 63.3264 32.4982 63.3481C32.4525 63.3699 32.3872 63.4037 32.3022 63.4494C32.2184 63.4963 32.1574 63.5442 32.1193 63.5932C32.0213 63.7458 31.9723 63.9064 31.9723 64.0753C31.9723 64.2441 32.0268 64.3847 32.1356 64.4969C32.2445 64.608 32.3844 64.6635 32.5554 64.6635C32.7274 64.6635 32.8635 64.6417 32.9637 64.5982C33.0649 64.5546 33.1401 64.5056 33.1891 64.4511C33.2381 64.3966 33.2762 64.3231 33.3034 64.2305C33.3361 64.127 33.3524 63.9936 33.3524 63.8302V63.2419C33.3524 63.1929 33.3333 63.1684 33.2952 63.1684ZM37.1072 64.8515H36.1762L35.5801 64.8596H35.4413C35.3487 64.8596 35.2834 64.8623 35.2453 64.8678H35.1881C35.0847 64.8678 35.033 64.8269 35.033 64.7452C35.033 64.6635 35.0537 64.5955 35.095 64.541C35.1353 64.4865 35.1734 64.4331 35.2094 64.3808C35.2442 64.3296 35.278 64.2823 35.3106 64.2387C36.3069 62.8007 36.805 62.0409 36.805 61.9592C36.805 61.932 36.7424 61.9184 36.6172 61.9184L35.6209 61.9755C35.4631 61.9864 35.3269 62.1035 35.2126 62.3269C35.1745 62.4031 35.1419 62.4412 35.1146 62.4412C35.0711 62.4412 35.0493 62.4015 35.0493 62.322C35.0493 62.2435 35.0564 62.1526 35.0705 62.0491C35.0836 61.9456 35.101 61.8377 35.1228 61.7255C35.1446 61.6144 35.1555 61.5507 35.1555 61.5344C35.1663 61.4363 35.2208 61.3873 35.3188 61.3873C35.3188 61.3873 35.61 61.3955 36.1926 61.4118L37.393 61.3873C37.4583 61.3873 37.491 61.4145 37.491 61.469C37.491 61.5289 37.4545 61.6024 37.3815 61.6896C37.3075 61.7767 37.2106 61.9129 37.0908 62.0981C36.9711 62.2833 36.7685 62.5785 36.4833 62.9837C36.1969 63.3901 35.99 63.6897 35.8626 63.8825C35.7342 64.0764 35.6699 64.206 35.6699 64.2714C35.6699 64.3204 35.8033 64.3449 36.0701 64.3449L36.4702 64.3367C36.7587 64.3367 36.9547 64.2959 37.0582 64.2142C37.1398 64.1543 37.1959 64.0818 37.2264 63.9969C37.2558 63.913 37.2759 63.8601 37.2868 63.8383C37.3249 63.7621 37.3712 63.724 37.4256 63.724C37.5127 63.724 37.5563 63.7621 37.5563 63.8383C37.5563 63.871 37.5198 63.9718 37.4469 64.1406C37.3728 64.3095 37.3266 64.4293 37.308 64.5001C37.2884 64.5709 37.2705 64.6281 37.2541 64.6717C37.2215 64.7915 37.1725 64.8515 37.1072 64.8515ZM39.6713 64.9168L39.0915 64.9005L38.5117 64.9168C38.294 64.9168 38.1851 64.8798 38.1851 64.8057C38.1851 64.7327 38.2259 64.6826 38.3076 64.6554C38.313 64.6554 38.3239 64.6526 38.3402 64.6472C38.4654 64.6036 38.5471 64.5383 38.5852 64.4511C38.6233 64.364 38.6424 63.9418 38.6424 63.1847V62.4658C38.6424 62.3078 38.6233 62.1825 38.5852 62.0899C38.5471 61.9973 38.5117 61.9401 38.4791 61.9184C38.4464 61.8966 38.3909 61.8786 38.3125 61.8644C38.233 61.8514 38.1758 61.8377 38.141 61.8236C38.1051 61.8105 38.0871 61.7887 38.0871 61.7582C38.0871 61.7288 38.0942 61.7059 38.1083 61.6896C38.1214 61.6733 38.1486 61.6553 38.19 61.6357C38.2303 61.6172 38.2722 61.5997 38.3157 61.5834C38.4682 61.5398 38.5934 61.4962 38.6914 61.4527C38.7894 61.4091 38.8645 61.3764 38.9168 61.3546C38.9679 61.3328 39.0017 61.3165 39.018 61.3056C39.0561 61.2893 39.1024 61.2811 39.1568 61.2811C39.2385 61.2811 39.2793 61.3328 39.2793 61.4363L39.2303 61.8285V64.0671C39.2303 64.2305 39.2565 64.3585 39.3087 64.4511C39.3599 64.5437 39.4143 64.6009 39.4721 64.6227C39.5287 64.6445 39.5951 64.6581 39.6713 64.6635C39.7475 64.669 39.7965 64.6717 39.8183 64.6717C39.8945 64.6826 39.9326 64.7207 39.9326 64.7861C39.9326 64.8787 39.8863 64.925 39.7938 64.925L39.6713 64.9168ZM38.9527 60.5131C38.8438 60.5131 38.7502 60.4559 38.6718 60.3415C38.5923 60.2271 38.5526 60.1329 38.5526 60.0588C38.5526 59.9858 38.6005 59.8905 38.6963 59.7729C38.791 59.6563 38.8808 59.598 38.9658 59.598C39.0496 59.598 39.1323 59.6536 39.214 59.7647C39.2957 59.8769 39.3365 59.9766 39.3365 60.0637C39.3365 60.1509 39.2848 60.2473 39.1813 60.353C39.0779 60.4597 39.0017 60.5131 38.9527 60.5131ZM42.1375 64.8678L41.5413 64.8351C41.3998 64.8351 41.212 64.8406 40.9779 64.8515L40.6267 64.8678C40.5451 64.8678 40.5042 64.8433 40.5042 64.7943C40.5042 64.7452 40.5179 64.7153 40.5451 64.7044C40.5723 64.6935 40.6061 64.6853 40.6463 64.6799C40.6877 64.6744 40.7275 64.6581 40.7656 64.6309C40.869 64.5655 40.9262 64.3678 40.9371 64.0377C40.9479 63.7087 40.9534 63.4925 40.9534 63.389V62.2125C40.9534 62.0382 40.9218 61.9211 40.8587 61.8612C40.7966 61.8013 40.7111 61.7713 40.6022 61.7713H40.5206C40.4171 61.7713 40.3654 61.7413 40.3654 61.6814C40.3654 61.627 40.4237 61.5916 40.5402 61.5752C40.6578 61.5589 40.7503 61.5409 40.8178 61.5213C40.8864 61.5028 40.9762 61.4701 41.0873 61.4232C41.1995 61.3775 41.2893 61.3383 41.3568 61.3056C41.4254 61.2729 41.4706 61.2566 41.4923 61.2566H41.5087C41.5577 61.2566 41.5822 61.2893 41.5822 61.3546L41.5658 61.7059C41.5658 61.8475 41.5767 61.9184 41.5985 61.9184C41.6203 61.9184 41.6421 61.9047 41.6638 61.8775C41.7455 61.7631 41.8544 61.6651 41.9905 61.5834C42.2355 61.4309 42.4696 61.3546 42.6928 61.3546C42.916 61.3546 43.1147 61.3884 43.2889 61.4559C43.4631 61.5246 43.5992 61.609 43.6972 61.7092C43.7952 61.8105 43.8768 61.9265 43.9422 62.0573C44.0511 62.2751 44.1055 62.4984 44.1055 62.7272V62.8089L44.1137 63.2419V64.0753C44.1137 64.2823 44.142 64.425 44.1986 64.5034C44.2563 64.5829 44.394 64.639 44.6118 64.6717C44.7207 64.688 44.7751 64.7289 44.7751 64.7943C44.7751 64.8487 44.7207 64.876 44.6118 64.876L43.9422 64.8351L43.3134 64.8678C43.2045 64.8678 43.1501 64.8324 43.1501 64.7616C43.1501 64.7126 43.1827 64.6799 43.2481 64.6635L43.3542 64.639C43.474 64.6009 43.5339 64.4184 43.5339 64.0916V62.9887C43.5339 62.5692 43.4304 62.2522 43.2236 62.0376C43.0167 61.8219 42.7826 61.7141 42.5213 61.7141C42.26 61.7141 42.0422 61.7767 41.868 61.902C41.6938 62.0273 41.5876 62.1444 41.5495 62.2533C41.5114 62.3623 41.4923 62.7789 41.4923 63.5034V63.8138C41.4923 64.0862 41.5207 64.2877 41.5773 64.4184C41.635 64.5492 41.7618 64.6227 41.9578 64.639C42.0123 64.639 42.0814 64.6483 42.1652 64.6668C42.2502 64.6864 42.2926 64.718 42.2926 64.7616C42.2926 64.8324 42.2409 64.8678 42.1375 64.8678ZM46.0082 66.4904C45.7959 66.4435 45.6037 66.3493 45.4317 66.2077C45.2607 66.0661 45.1753 65.9027 45.1753 65.7175C45.1753 65.5323 45.2242 65.3896 45.3222 65.2894C45.4202 65.1881 45.5182 65.1129 45.6162 65.0639C45.7142 65.0149 45.7632 64.9838 45.7632 64.9707C45.7632 64.9566 45.7496 64.9386 45.7224 64.9168C45.6952 64.895 45.6625 64.8705 45.6244 64.8433C45.5373 64.7725 45.4937 64.6537 45.4937 64.4871C45.4937 64.3215 45.5291 64.1788 45.5999 64.0589C45.6707 63.9391 45.7414 63.8492 45.8122 63.7893C45.883 63.7294 45.9184 63.6897 45.9184 63.67C45.9184 63.6515 45.8895 63.6178 45.8318 63.5687C45.7752 63.5197 45.7115 63.4642 45.6407 63.4021C45.5699 63.3389 45.5057 63.2348 45.448 63.09C45.3914 62.9462 45.3631 62.7937 45.3631 62.6324C45.3631 62.4723 45.3832 62.3285 45.4235 62.201C45.4649 62.0725 45.5329 61.9385 45.6277 61.7991C45.7235 61.6607 45.8705 61.548 46.0686 61.4608C46.2679 61.3737 46.4884 61.3301 46.7301 61.3301C46.9729 61.3301 47.1705 61.3573 47.3229 61.4118C47.4754 61.4663 47.5881 61.5207 47.661 61.5752C47.735 61.6297 47.7884 61.6569 47.8211 61.6569C47.8537 61.6569 47.9871 61.6079 48.2212 61.5098C48.2974 61.4772 48.3546 61.4036 48.3927 61.2893C48.4308 61.1749 48.4716 61.1177 48.5152 61.1177C48.586 61.1177 48.6213 61.1395 48.6213 61.183C48.6213 61.3138 48.6023 61.4537 48.5642 61.603C48.5261 61.7533 48.4798 61.871 48.4254 61.9559C48.3709 62.0398 48.2648 62.1144 48.1069 62.1798C48.1668 62.3432 48.1967 62.4794 48.1967 62.5883C48.1967 62.9369 48.066 63.231 47.8047 63.4707C47.5434 63.7103 47.2249 63.8302 46.8493 63.8302C46.7078 63.8302 46.5727 63.8177 46.4443 63.7926C46.3169 63.7686 46.2407 63.7566 46.2156 63.7566C46.1917 63.7566 46.1579 63.7621 46.1144 63.773C46.0708 63.7839 46.0164 63.822 45.951 63.8874C45.8857 63.9527 45.853 64.0426 45.853 64.157C45.853 64.3422 45.9374 64.4593 46.1062 64.5083C46.275 64.5573 46.5553 64.5818 46.9473 64.5818H47.3229C48.1123 64.5818 48.507 64.8215 48.507 65.3008C48.507 65.4697 48.488 65.5977 48.4499 65.6848C48.3464 65.9517 48.1341 66.1641 47.8129 66.3221C47.4917 66.48 47.1188 66.559 46.6941 66.559C46.4492 66.559 46.2205 66.5361 46.0082 66.4904ZM45.6489 65.6113C45.6489 65.8509 45.7496 66.0323 45.951 66.1554C46.1525 66.2774 46.4111 66.3384 46.7268 66.3384C47.0426 66.3384 47.3349 66.2692 47.6038 66.1309C47.8739 65.9915 48.0089 65.8128 48.0089 65.5949C48.0089 65.3989 47.9136 65.2763 47.7231 65.2273C47.5761 65.1946 47.3692 65.1783 47.1024 65.1783H47.029C46.8547 65.1783 46.6424 65.1592 46.392 65.1211L46.0245 65.0639C45.9701 65.0639 45.8939 65.1183 45.7959 65.2273C45.6979 65.3362 45.6489 65.4642 45.6489 65.6113ZM46.7546 61.5098C46.5237 61.5098 46.3376 61.5954 46.196 61.7664C46.0545 61.9385 45.9837 62.1853 45.9837 62.5066C45.9837 62.828 46.061 63.0976 46.2156 63.3155C46.3713 63.5333 46.5689 63.6423 46.8085 63.6423C47.048 63.6423 47.2331 63.5486 47.3638 63.3612C47.4944 63.1728 47.5597 62.9342 47.5597 62.6455C47.5597 62.3568 47.4835 62.0954 47.3311 61.8612C47.1787 61.627 46.9865 61.5098 46.7546 61.5098ZM51.3227 61.804L50.996 61.8285C50.8763 61.8285 50.8164 61.7931 50.8164 61.7223C50.8164 61.6242 50.8398 61.5589 50.8866 61.5262C50.9323 61.4935 51.0233 61.4772 51.1594 61.4772H51.3308C51.3962 61.4772 51.437 61.4619 51.4533 61.4314C51.4697 61.402 51.4778 61.3546 51.4778 61.2893C51.4778 60.8916 51.5432 60.5251 51.6738 60.1895C51.8045 59.8551 51.9678 59.5899 52.1638 59.3938C52.5667 58.9744 52.9368 58.7647 53.2744 58.7647C53.3996 58.7647 53.5019 58.7848 53.5814 58.8251C53.6598 58.8665 53.699 58.9226 53.699 58.9934C53.699 59.0152 53.6898 59.0626 53.6712 59.1356C53.6517 59.2097 53.6391 59.2576 53.6337 59.2794C53.6282 59.3012 53.6228 59.3186 53.6174 59.3317C53.6119 59.3458 53.6065 59.3611 53.601 59.3774C53.5956 59.3938 53.5901 59.4058 53.5847 59.4134C53.5792 59.4221 53.5727 59.4319 53.5651 59.4428C53.5564 59.4537 53.5466 59.4619 53.5357 59.4673C53.5194 59.4782 53.4976 59.4836 53.4704 59.4836C53.4431 59.4836 53.4159 59.4646 53.3887 59.4265C53.307 59.323 53.1617 59.2712 52.9526 59.2712C52.7425 59.2712 52.5792 59.3284 52.4627 59.4428C52.3451 59.5572 52.2563 59.7097 52.1965 59.9003C52.0821 60.2707 52.025 60.6792 52.025 61.1259V61.3301C52.025 61.4336 52.0576 61.4853 52.123 61.4853C52.602 61.4853 52.8933 61.4472 52.9967 61.371C53.0348 61.3492 53.0648 61.3383 53.0866 61.3383C53.1083 61.3383 53.1192 61.3666 53.1192 61.4232C53.1192 61.481 53.0811 61.5779 53.0049 61.7141C52.9722 61.7631 52.9042 61.7876 52.8007 61.7876L52.1638 61.7958C52.0767 61.7958 52.0331 61.823 52.0331 61.8775V62.3514L52.074 63.9691C52.074 64.2578 52.1121 64.4484 52.1883 64.541C52.2754 64.6554 52.4088 64.7126 52.5884 64.7126C52.681 64.7126 52.7273 64.7534 52.7273 64.8351C52.7273 64.8896 52.6973 64.9168 52.6374 64.9168L51.8208 64.876L51.2165 64.9168C51.1349 64.9168 51.094 64.8787 51.094 64.8024C51.094 64.7752 51.1283 64.748 51.1969 64.7207C51.2644 64.6935 51.3309 64.6428 51.3962 64.5688C51.4615 64.4958 51.4942 64.413 51.4942 64.3204C51.4942 64.2278 51.4914 64.0943 51.486 63.9201C51.4697 63.3863 51.4615 62.7245 51.4615 61.9347C51.4615 61.8748 51.4523 61.8377 51.4337 61.8236C51.4141 61.8105 51.3771 61.804 51.3227 61.804ZM53.8215 61.902L53.7317 61.8938C53.6282 61.8938 53.5765 61.8503 53.5765 61.7631C53.5765 61.7032 53.613 61.658 53.6859 61.6275C53.76 61.5981 53.8961 61.5518 54.0943 61.4886C54.2935 61.4265 54.4503 61.3693 54.5646 61.317C54.6789 61.2658 54.747 61.2402 54.7688 61.2402C54.8395 61.2402 54.8749 61.2947 54.8749 61.4036L54.8668 61.6242C54.8668 61.8203 54.8733 61.9276 54.8864 61.9461C54.9005 61.9657 54.9141 61.9755 54.9272 61.9755C54.9413 61.9755 54.9838 61.9211 55.0546 61.8121C55.1254 61.7032 55.2261 61.5926 55.3567 61.4804C55.4874 61.3693 55.6164 61.3138 55.7438 61.3138C55.8723 61.3138 56.0046 61.3584 56.1407 61.4478C56.2768 61.5382 56.3448 61.628 56.3448 61.7174C56.3448 61.8078 56.3231 61.8911 56.2795 61.9674C56.2033 62.0981 56.1325 62.1635 56.0672 62.1635C56.0236 62.1635 55.9458 62.1308 55.8336 62.0654C55.7226 62.0001 55.5935 61.9674 55.4466 61.9674C55.2996 61.9674 55.1618 62.0273 55.0334 62.1471C54.906 62.267 54.8423 62.3759 54.8423 62.4739V63.3236L54.8504 64.0344L54.8586 64.1815C54.8586 64.2959 54.8967 64.3939 54.9729 64.4756C55.0491 64.5573 55.121 64.6036 55.1885 64.6145C55.2571 64.6254 55.3159 64.6336 55.3649 64.639C55.4139 64.6445 55.452 64.6483 55.4792 64.6505C55.5064 64.6537 55.5364 64.6608 55.569 64.6717C55.6289 64.6826 55.6589 64.7218 55.6589 64.7894C55.6589 64.858 55.6262 64.8923 55.5609 64.8923L54.8668 64.8515L54.0175 64.8923C53.9195 64.8923 53.8651 64.8814 53.8542 64.8596C53.8433 64.8378 53.8378 64.816 53.8378 64.7943C53.8378 64.7235 53.8732 64.6772 53.944 64.6554C54.0855 64.6227 54.171 64.553 54.2004 64.4462C54.2309 64.3405 54.2461 64.1134 54.2461 63.7648L54.238 62.4494L54.2298 62.2043C54.2298 62.1444 54.2216 62.0954 54.2053 62.0573C54.1618 61.9538 54.0338 61.902 53.8215 61.902ZM58.5007 65.023C58.0216 65.023 57.6144 64.876 57.279 64.5818C56.9448 64.2877 56.7776 63.8612 56.7776 63.3024C56.7776 62.7446 56.9312 62.2778 57.2382 61.902C57.5463 61.5262 57.9454 61.3383 58.4353 61.3383C58.664 61.3383 58.872 61.3791 59.0592 61.4608C59.2476 61.5425 59.3935 61.6417 59.4969 61.7582C59.6004 61.8759 59.6875 62.0001 59.7583 62.1308C59.878 62.3541 59.9379 62.523 59.9379 62.6373C59.9379 62.7354 59.8263 62.7844 59.6031 62.7844H57.5044C57.4609 62.7844 57.4347 62.7882 57.426 62.7958C57.4184 62.8045 57.4146 62.8307 57.4146 62.8743C57.4146 63.3863 57.5518 63.7893 57.8262 64.0835C58.1016 64.3776 58.4245 64.5246 58.7947 64.5246C59.0233 64.5246 59.2558 64.4631 59.492 64.34C59.7294 64.218 59.8535 64.157 59.8644 64.157C59.9189 64.157 59.9461 64.1815 59.9461 64.2305C59.9461 64.2959 59.8862 64.3847 59.7664 64.4969C59.6467 64.608 59.5323 64.6989 59.4234 64.7697C59.1621 64.9386 58.8545 65.023 58.5007 65.023ZM57.5697 62.5883L59.007 62.5393C59.0832 62.5393 59.1306 62.5322 59.1491 62.518C59.1687 62.505 59.1785 62.4794 59.1785 62.4412C59.1785 62.2778 59.1022 62.0872 58.9498 61.8693C58.7974 61.6515 58.5851 61.5425 58.3129 61.5425C58.0407 61.5425 57.8311 61.6498 57.6841 61.8644C57.5371 62.0801 57.4636 62.2833 57.4636 62.4739C57.4636 62.5502 57.499 62.5883 57.5697 62.5883ZM62.3044 65.023C61.8254 65.023 61.4187 64.876 61.0844 64.5818C60.7491 64.2877 60.5814 63.8612 60.5814 63.3024C60.5814 62.7446 60.7355 62.2778 61.0436 61.902C61.3506 61.5262 61.7491 61.3383 62.2391 61.3383C62.4678 61.3383 62.6763 61.3791 62.8646 61.4608C63.0519 61.5425 63.1973 61.6417 63.3007 61.7582C63.4041 61.8759 63.4912 62.0001 63.562 62.1308C63.6818 62.3541 63.7417 62.523 63.7417 62.6373C63.7417 62.7354 63.6301 62.7844 63.4069 62.7844H61.3082C61.2646 62.7844 61.239 62.7882 61.2314 62.7958C61.2227 62.8045 61.2183 62.8307 61.2183 62.8743C61.2183 63.3863 61.3561 63.7893 61.6316 64.0835C61.9059 64.3776 62.2282 64.5246 62.5984 64.5246C62.8271 64.5246 63.0601 64.4631 63.2974 64.34C63.5337 64.218 63.6573 64.157 63.6682 64.157C63.7226 64.157 63.7498 64.1815 63.7498 64.2305C63.7498 64.2959 63.69 64.3847 63.5702 64.4969C63.4504 64.608 63.3361 64.6989 63.2272 64.7697C62.9659 64.9386 62.6583 65.023 62.3044 65.023ZM61.3735 62.5883L62.8107 62.5393C62.887 62.5393 62.9349 62.5322 62.9545 62.518C62.973 62.505 62.9822 62.4794 62.9822 62.4412C62.9822 62.2778 62.906 62.0872 62.7536 61.8693C62.6011 61.6515 62.3888 61.5425 62.1166 61.5425C61.8444 61.5425 61.6348 61.6498 61.4878 61.8644C61.3408 62.0801 61.2673 62.2833 61.2673 62.4739C61.2673 62.5502 61.3027 62.5883 61.3735 62.5883ZM66.3222 61.8367L66.167 61.8448C66.0745 61.8448 66.0282 61.8067 66.0282 61.7304C66.0282 61.676 66.0527 61.6297 66.1017 61.5916C66.3085 61.4554 66.5154 61.2511 66.7223 60.9788C66.8094 60.8535 66.8785 60.762 66.9297 60.7043C66.982 60.6476 67.0353 60.6193 67.0898 60.6193C67.1442 60.6193 67.1714 60.6819 67.1714 60.8072C67.1714 60.8072 67.1605 60.9624 67.1388 61.2729C67.1388 61.3492 67.1535 61.3955 67.1829 61.4118C67.2133 61.4281 67.3103 61.4363 67.4736 61.4363H67.7594C68.0044 61.4363 68.1541 61.4227 68.2085 61.3955C68.3065 61.3464 68.3664 61.3219 68.3882 61.3219C68.4426 61.3219 68.4698 61.3519 68.4698 61.4118C68.4698 61.4554 68.4344 61.5409 68.3637 61.6684C68.2929 61.7969 68.2412 61.8612 68.2085 61.8612C67.9635 61.8612 67.7921 61.8557 67.6941 61.8448C67.5961 61.8339 67.5307 61.8269 67.4981 61.8236C67.4654 61.8214 67.4366 61.8187 67.4115 61.8154C67.3876 61.8132 67.3701 61.8121 67.3592 61.8121L67.3429 61.804C67.2395 61.804 67.1725 61.8203 67.142 61.853C67.1126 61.8857 67.0979 61.9592 67.0979 62.0736L67.0653 63.5932C67.0653 63.9473 67.1099 64.1935 67.1992 64.3318C67.2896 64.4713 67.479 64.541 67.7676 64.541C67.8819 64.541 68.0082 64.5148 68.1465 64.4626C68.2858 64.4114 68.361 64.3858 68.3718 64.3858C68.4263 64.3858 68.4535 64.4212 68.4535 64.492C68.4535 64.5628 68.3593 64.6565 68.171 64.773C67.9837 64.8907 67.7812 64.9495 67.5634 64.9495C66.8285 64.9495 66.461 64.6309 66.461 63.9936V63.871L66.4936 61.9674C66.4936 61.9129 66.4828 61.8775 66.461 61.8612C66.4392 61.8448 66.3929 61.8367 66.3222 61.8367ZM70.7433 65.0149C70.1858 65.0149 69.7421 64.8362 69.4122 64.4789C69.0834 64.1227 68.919 63.6967 68.919 63.2011C68.919 62.7054 69.0888 62.2724 69.4285 61.902C69.7693 61.5316 70.2185 61.3464 70.7759 61.3464C71.3345 61.3464 71.8027 61.5071 72.1805 61.8285C72.5594 62.1498 72.7489 62.5965 72.7489 63.1684C72.7489 63.7403 72.554 64.1908 72.1642 64.5197C71.7755 64.8498 71.3018 65.0149 70.7433 65.0149ZM70.6502 61.567C70.3671 61.567 70.115 61.6787 69.894 61.902C69.6741 62.1253 69.5641 62.493 69.5641 63.005C69.5641 63.517 69.7138 63.9391 70.0132 64.2714C70.3126 64.6036 70.6349 64.7697 70.9801 64.7697C71.3263 64.7697 71.6056 64.651 71.8179 64.4135C72.0303 64.1771 72.1364 63.8302 72.1364 63.3726C72.1364 62.9151 72.0058 62.4995 71.7444 62.1259C71.4831 61.7533 71.1184 61.567 70.6502 61.567ZM75.6217 65.5377V65.3743L75.6462 63.1194V62.9396C75.6462 62.4875 75.626 62.1869 75.5858 62.0376C75.5444 61.8873 75.4366 61.8121 75.2624 61.8121C75.1698 61.8121 75.1127 61.8056 75.0909 61.7925C75.0691 61.7784 75.0582 61.756 75.0582 61.7255C75.0582 61.6961 75.0816 61.6733 75.1285 61.6569C75.1742 61.6406 75.2678 61.6106 75.4094 61.567C75.5509 61.5235 75.7142 61.4565 75.8993 61.3661C76.0844 61.2767 76.1852 61.2321 76.2015 61.2321C76.2723 61.2321 76.3076 61.2675 76.3076 61.3383L76.275 61.8203C76.275 61.8639 76.2804 61.8857 76.2913 61.8857C76.3022 61.8857 76.3283 61.8666 76.3697 61.8285C76.41 61.7904 76.4628 61.7424 76.5281 61.6847C76.5935 61.628 76.6724 61.5725 76.7649 61.518C76.9773 61.3873 77.2304 61.3219 77.5244 61.3219C78.0089 61.3219 78.3791 61.481 78.635 61.7991C78.8909 62.1183 79.0188 62.5186 79.0188 63.0001C79.0188 63.4827 78.8598 63.9266 78.5419 64.3318C78.2229 64.7382 77.7966 64.9413 77.2631 64.9413C77.0127 64.9413 76.8101 64.9152 76.6555 64.8629C76.4998 64.8117 76.392 64.7599 76.3321 64.7077C76.2723 64.6565 76.2331 64.6309 76.2146 64.6309C76.195 64.6309 76.1852 64.6526 76.1852 64.6962V65.7011C76.1852 65.8046 76.2314 65.9326 76.324 66.0851C76.3839 66.1832 76.4753 66.2404 76.5984 66.2567C76.7203 66.2731 76.8237 66.284 76.9087 66.2894C76.9925 66.2948 77.0344 66.3319 77.0344 66.4005C77.0344 66.4681 76.9419 66.5018 76.7568 66.5018C76.7241 66.5018 76.637 66.4964 76.4955 66.4855C76.3539 66.4746 76.1579 66.4691 75.9075 66.4691L75.393 66.4937C75.2733 66.4937 75.1971 66.4882 75.1644 66.4773C75.1317 66.4664 75.1154 66.4408 75.1154 66.4005C75.1154 66.3591 75.1415 66.3275 75.1938 66.3057C75.245 66.284 75.3032 66.2649 75.3685 66.2486C75.4339 66.2322 75.4927 66.1658 75.5449 66.0492C75.5961 65.9315 75.6217 65.7611 75.6217 65.5377ZM76.1852 63.2991L76.1933 63.7076C76.1933 63.8983 76.2341 64.0617 76.3158 64.1978C76.3975 64.334 76.5036 64.4375 76.6343 64.5083C76.8738 64.6336 77.127 64.6962 77.3937 64.6962C77.7476 64.6962 78.0187 64.5666 78.2071 64.3073C78.3944 64.0491 78.488 63.7185 78.488 63.3155C78.488 62.9124 78.3726 62.5475 78.1418 62.2207C77.9098 61.8938 77.5979 61.7304 77.2059 61.7304C76.9283 61.7304 76.6806 61.8176 76.4628 61.9919C76.3485 62.079 76.2739 62.1972 76.2391 62.3465C76.2031 62.4968 76.1852 62.8144 76.1852 63.2991ZM80.0396 63.9037V63.2991L80.0722 59.8268C80.0722 59.7015 80.0515 59.5882 80.0102 59.4869C79.9699 59.3867 79.9252 59.3257 79.8762 59.3039C79.8272 59.2821 79.7184 59.2712 79.5496 59.2712C79.4897 59.2712 79.4598 59.2522 79.4598 59.214C79.4598 59.1759 79.4636 59.1487 79.4712 59.1323C79.4799 59.116 79.4979 59.1007 79.5251 59.0866C79.5523 59.0735 79.585 59.0615 79.6231 59.0506C79.781 59.0179 79.9443 58.9608 80.113 58.8791C80.3798 58.7538 80.554 58.6911 80.6357 58.6911C80.701 58.6911 80.7337 58.7429 80.7337 58.8464C80.7337 58.8682 80.7282 58.9308 80.7173 59.0343C80.6847 59.3556 80.6683 59.707 80.6683 60.0882V60.5458L80.652 61.6324V64.0671C80.652 64.1815 80.6613 64.2752 80.6798 64.3482C80.6994 64.4222 80.762 64.4931 80.8676 64.5606C80.9743 64.6292 81.1229 64.6635 81.3135 64.6635C81.3407 64.6635 81.3652 64.6772 81.387 64.7044C81.4087 64.7316 81.4196 64.7589 81.4196 64.7861C81.4196 64.8623 81.3352 64.9005 81.1665 64.9005L80.3417 64.8433C80.2001 64.8433 80.0651 64.8542 79.9367 64.876C79.8093 64.8977 79.7249 64.9086 79.6835 64.9086C79.6432 64.9086 79.6106 64.8994 79.5855 64.8809C79.5616 64.8613 79.5496 64.8362 79.5496 64.8057C79.5496 64.7763 79.5616 64.7518 79.5855 64.7322C79.6106 64.7136 79.6503 64.6989 79.7047 64.688C79.8681 64.6445 79.9661 64.5775 79.9987 64.4871C80.0314 64.3977 80.0477 64.2741 80.0477 64.1161L80.0396 63.9037ZM82.9303 64.9903C82.2879 64.9903 81.9667 64.718 81.9667 64.1733C81.9667 63.7812 82.1301 63.5115 82.4567 63.3645C82.7289 63.2501 83.1454 63.1466 83.7061 63.054C83.7225 63.0486 83.7442 63.0442 83.7715 63.0409C83.7987 63.0388 83.827 63.0349 83.8564 63.0295C83.8869 63.0241 83.9103 63.0186 83.9266 63.0132C83.9647 62.9968 83.9838 62.9587 83.9838 62.8988L84.0001 62.4739C84.0001 62.1635 83.9103 61.9385 83.7306 61.7991C83.551 61.6607 83.3768 61.5916 83.208 61.5916C82.816 61.5916 82.62 61.755 82.62 62.0818L82.6527 62.3759C82.6527 62.4848 82.6037 62.5393 82.5057 62.5393C82.4295 62.5393 82.3451 62.5257 82.2526 62.4984C82.0838 62.444 81.9994 62.3514 81.9994 62.2207C81.9994 62.0082 82.142 61.8051 82.4273 61.6112C82.7137 61.4183 83.0011 61.3219 83.2897 61.3219C83.5782 61.3219 83.8041 61.3492 83.9674 61.4036C84.1308 61.4581 84.2516 61.5191 84.33 61.5866C84.4095 61.6553 84.471 61.7468 84.5146 61.8612C84.569 61.9973 84.5962 62.2109 84.5962 62.5017C84.5962 62.7937 84.5891 63.0524 84.575 63.2779C84.5619 63.5045 84.5554 63.7103 84.5554 63.8955C84.5554 64.0807 84.5772 64.2316 84.6207 64.3482C84.6643 64.4658 84.716 64.541 84.7759 64.5737C84.8358 64.6063 84.8956 64.6254 84.9555 64.6309C85.1025 64.6417 85.176 64.6853 85.176 64.7616C85.176 64.876 85.0045 64.9332 84.6616 64.9332C84.52 64.9332 84.3986 64.895 84.2973 64.8188C84.1972 64.7425 84.1253 64.6673 84.0818 64.5933C84.0382 64.5203 84.0137 64.4838 84.0083 64.4838C84.0028 64.4838 83.981 64.5018 83.9429 64.5377C83.9048 64.5726 83.8515 64.6145 83.7829 64.6635C83.7154 64.7126 83.6381 64.7616 83.551 64.8106C83.3495 64.9304 83.1427 64.9903 82.9303 64.9903ZM83.9266 63.1684L83.8449 63.1847C83.7197 63.2065 83.6408 63.2201 83.6081 63.2256C83.5755 63.231 83.4992 63.2474 83.3795 63.2746C83.2597 63.3018 83.1764 63.3264 83.1296 63.3481C83.0839 63.3699 83.0185 63.4037 82.9336 63.4494C82.8498 63.4963 82.7888 63.5442 82.7507 63.5932C82.6527 63.7458 82.6037 63.9064 82.6037 64.0753C82.6037 64.2441 82.6581 64.3847 82.767 64.4969C82.8759 64.608 83.0158 64.6635 83.1868 64.6635C83.3588 64.6635 83.4949 64.6417 83.5951 64.5982C83.6963 64.5546 83.7715 64.5056 83.8204 64.4511C83.8694 64.3966 83.9076 64.3231 83.9348 64.2305C83.9674 64.127 83.9838 63.9936 83.9838 63.8302V63.2419C83.9838 63.1929 83.9647 63.1684 83.9266 63.1684ZM86.9138 66.4201H86.8893L86.5381 66.4283C86.4347 66.4283 86.383 66.3929 86.383 66.3221C86.383 66.3057 86.4445 66.2213 86.5675 66.0688C86.6895 65.9163 86.813 65.7284 86.9383 65.5051C87.0635 65.2817 87.1261 65.0846 87.1261 64.9135C87.1261 64.7414 86.9709 64.3177 86.6606 63.6423C86.3503 62.9669 86.0808 62.414 85.8522 61.9837C85.7923 61.8748 85.7313 61.7904 85.6693 61.7304C85.6061 61.6705 85.5555 61.6378 85.5174 61.6324C85.4303 61.6215 85.3867 61.5807 85.3867 61.5098C85.3867 61.439 85.4411 61.4036 85.55 61.4036L86.4238 61.42L86.8893 61.4036C86.9274 61.4036 86.9617 61.4129 86.9922 61.4314C87.0216 61.451 87.0363 61.4717 87.0363 61.4935C87.0363 61.5916 86.9709 61.6406 86.8403 61.6406H86.7178C86.6307 61.6406 86.5871 61.7087 86.5871 61.8448C86.5871 62.0082 86.7314 62.4004 87.0199 63.0213C87.0635 63.1139 87.1288 63.261 87.2159 63.4625C87.3792 63.8329 87.4772 64.0181 87.5099 64.0181C87.5425 64.0181 87.6694 63.7049 87.8904 63.0785C88.1104 62.4521 88.2203 62.079 88.2203 61.9592C88.2203 61.8394 88.1947 61.755 88.1436 61.7059C88.0913 61.6569 88.0325 61.6324 87.9672 61.6324C87.7984 61.6433 87.714 61.597 87.714 61.4935C87.714 61.4281 87.7658 61.3955 87.8692 61.3955L88.4572 61.4036L88.9634 61.3955C89.0778 61.3955 89.1349 61.4309 89.1349 61.5017C89.1349 61.5561 89.0876 61.5954 88.9928 61.6193C88.897 61.6444 88.8328 61.6787 88.8001 61.7223C88.713 61.8475 88.566 62.1907 88.3592 62.7517L87.6324 64.688C87.5725 64.846 87.5126 65.0083 87.4527 65.175C87.3928 65.3406 87.3438 65.4751 87.3057 65.5786C87.2676 65.6821 87.2295 65.7856 87.1914 65.8891C87.1533 65.9926 87.1234 66.0732 87.1016 66.1309C87.0798 66.1875 87.058 66.2404 87.0363 66.2894C86.9927 66.3765 86.9519 66.4201 86.9138 66.4201Z" fill="#D9DAF0"/>
</g>
</g>
<g clip-path="url(#clip11_3_7)">
<g clip-path="url(#clip12_3_7)">
<path d="M21.9083 73.2788C21.7083 73.2788 21.5383 73.2638 21.3983 73.2338C21.2583 73.2038 21.145 73.1621 21.0583 73.1087C20.9717 73.0553 20.9094 72.9903 20.8714 72.9136C20.8327 72.8369 20.8134 72.7519 20.8134 72.6585C20.8134 72.5918 20.8284 72.5301 20.8584 72.4734C20.8884 72.4167 20.9284 72.3667 20.9784 72.3233C21.0284 72.28 21.085 72.2423 21.1483 72.2103C21.2117 72.1789 21.2767 72.1549 21.3433 72.1382V72.1182C21.1333 72.0449 21.0284 71.9031 21.0284 71.693C21.0284 71.5596 21.071 71.4546 21.1563 71.3779C21.241 71.3012 21.34 71.2478 21.4533 71.2178V71.1928C21.2967 71.1261 21.1727 71.0277 21.0813 70.8976C20.9894 70.7676 20.9434 70.6108 20.9434 70.4274C20.9434 70.2974 20.9674 70.1796 21.0154 70.0742C21.064 69.9695 21.1327 69.8805 21.2213 69.8071C21.3093 69.7338 21.4133 69.6771 21.5333 69.637C21.6533 69.597 21.785 69.577 21.9283 69.577C22.085 69.577 22.219 69.5977 22.3303 69.639C22.4423 69.6811 22.5367 69.7321 22.6133 69.7921C22.6167 69.5987 22.6543 69.467 22.7263 69.3969C22.7976 69.3269 22.8816 69.2919 22.9783 69.2919C23.0516 69.2919 23.1126 69.3135 23.1613 69.3569C23.2093 69.4003 23.2333 69.4586 23.2333 69.532C23.2333 69.602 23.211 69.6594 23.1663 69.7041C23.121 69.7494 23.0583 69.7721 22.9783 69.7721C22.885 69.7721 22.8133 69.7388 22.7633 69.6721H22.7483V69.9222C22.785 69.9722 22.8233 70.0372 22.8633 70.1173C22.9033 70.1973 22.9233 70.3007 22.9233 70.4274C22.9233 70.5575 22.8983 70.6759 22.8483 70.7826C22.7983 70.8893 22.7293 70.9793 22.6413 71.0527C22.5527 71.1261 22.4477 71.1828 22.3263 71.2228C22.2043 71.2628 22.0717 71.2828 21.9283 71.2828C21.835 71.2828 21.7467 71.2728 21.6633 71.2528C21.5767 71.2695 21.4983 71.3052 21.4283 71.3599C21.3583 71.4152 21.3233 71.4813 21.3233 71.558C21.3233 71.6413 21.355 71.6997 21.4183 71.733C21.4817 71.7664 21.5883 71.7831 21.7383 71.7831H22.3283C22.6217 71.7831 22.8393 71.8421 22.9813 71.9602C23.1226 72.0789 23.1933 72.2483 23.1933 72.4684C23.1933 72.7152 23.085 72.9119 22.8683 73.0587C22.6517 73.2054 22.3317 73.2788 21.9083 73.2788ZM21.9333 71.0677C22.1167 71.0677 22.2543 71.0194 22.3463 70.9227C22.4377 70.8259 22.4833 70.6942 22.4833 70.5275V70.3324C22.4833 70.1656 22.4377 70.0339 22.3463 69.9372C22.2543 69.8405 22.1167 69.7921 21.9333 69.7921C21.75 69.7921 21.6123 69.8405 21.5203 69.9372C21.429 70.0339 21.3833 70.1656 21.3833 70.3324V70.5275C21.3833 70.6942 21.429 70.8259 21.5203 70.9227C21.6123 71.0194 21.75 71.0677 21.9333 71.0677ZM21.1783 72.6335C21.1783 72.7669 21.236 72.8669 21.3513 72.9336C21.466 73.0003 21.62 73.0337 21.8133 73.0337H22.0483C22.2983 73.0337 22.4943 72.992 22.6363 72.9086C22.7776 72.8252 22.8483 72.7135 22.8483 72.5734C22.8483 72.4467 22.805 72.351 22.7183 72.2863C22.6317 72.2209 22.48 72.1883 22.2633 72.1883H21.4833C21.3767 72.235 21.2993 72.2966 21.2513 72.3734C21.2027 72.4501 21.1783 72.5368 21.1783 72.6335ZM25.6563 72.2783C25.4163 72.2783 25.2289 72.2156 25.0943 72.0902C24.9589 71.9655 24.8913 71.7947 24.8913 71.578C24.8913 71.4546 24.9113 71.3452 24.9513 71.2498C24.9913 71.1551 25.0573 71.0761 25.1493 71.0127C25.2406 70.9493 25.3596 70.901 25.5063 70.8676C25.6529 70.8343 25.8313 70.8176 26.0413 70.8176H26.4112V70.4374C26.4112 70.234 26.3622 70.0779 26.2642 69.9692C26.1656 69.8611 26.0179 69.8071 25.8213 69.8071C25.7346 69.8071 25.6546 69.8145 25.5813 69.8291C25.5079 69.8445 25.4479 69.8655 25.4013 69.8922V69.9022C25.4379 69.9222 25.4739 69.9522 25.5093 69.9922C25.5439 70.0322 25.5613 70.0889 25.5613 70.1623C25.5613 70.249 25.5363 70.3164 25.4863 70.3644C25.4363 70.4131 25.3696 70.4374 25.2863 70.4374C25.2063 70.4374 25.1406 70.4131 25.0893 70.3644C25.0373 70.3164 25.0113 70.244 25.0113 70.1473C25.0113 70.0739 25.0329 70.0029 25.0763 69.9342C25.1196 69.8661 25.1813 69.8055 25.2613 69.7521C25.3413 69.6987 25.4406 69.656 25.5593 69.624C25.6773 69.5927 25.8113 69.577 25.9613 69.577C26.2312 69.577 26.4422 69.647 26.5942 69.7871C26.7456 69.9272 26.8212 70.1239 26.8212 70.3774V72.0032H27.1962V72.1783C27.1596 72.2049 27.1106 72.2283 27.0492 72.2483C26.9872 72.2683 26.9179 72.2783 26.8412 72.2783C26.7112 72.2783 26.6112 72.2416 26.5412 72.1683C26.4712 72.0949 26.4362 71.9965 26.4362 71.8731V71.8381H26.4112C26.3879 71.8948 26.3572 71.9498 26.3192 72.0032C26.2806 72.0565 26.2312 72.1032 26.1712 72.1432C26.1112 72.1833 26.0389 72.2159 25.9543 72.2413C25.8689 72.266 25.7696 72.2783 25.6563 72.2783ZM25.8313 72.0032C25.9913 72.0032 26.1279 71.9622 26.2412 71.8801C26.3546 71.7987 26.4112 71.673 26.4112 71.5029V71.0177H26.0863C25.9429 71.0177 25.8229 71.0284 25.7263 71.0497C25.6296 71.0717 25.5529 71.1034 25.4963 71.1448C25.4396 71.1868 25.3989 71.2378 25.3743 71.2978C25.3489 71.3579 25.3363 71.4279 25.3363 71.5079V71.613C25.3363 71.7397 25.3796 71.8364 25.4663 71.9031C25.5529 71.9698 25.6746 72.0032 25.8313 72.0032ZM28.9602 72.2183V71.9882H29.3302V69.9622L28.9602 69.8972V69.7271L29.7302 69.577V70.0272H29.7502C29.7702 69.9739 29.8002 69.9205 29.8402 69.8671C29.8802 69.8138 29.9308 69.7654 29.9922 69.7221C30.0542 69.6787 30.1252 69.6437 30.2052 69.617C30.2852 69.5903 30.3752 69.577 30.4752 69.577C30.6952 69.577 30.8702 69.6187 31.0002 69.7021C31.1302 69.7854 31.2201 69.9138 31.2701 70.0873H31.2851C31.3118 70.0272 31.3468 69.9672 31.3901 69.9072C31.4335 69.8471 31.4868 69.7921 31.5501 69.7421C31.6135 69.6921 31.6875 69.652 31.7721 69.622C31.8575 69.592 31.9568 69.577 32.0701 69.577C32.3801 69.577 32.6008 69.6587 32.7321 69.8221C32.8641 69.9855 32.9301 70.229 32.9301 70.5525V71.9882H33.3001V72.2183H32.1501V71.9882H32.5201V70.5825C32.5201 70.1023 32.3218 69.8621 31.9251 69.8621C31.8518 69.8621 31.7791 69.8728 31.7071 69.8942C31.6358 69.9162 31.5725 69.9479 31.5171 69.9892C31.4625 70.0312 31.4185 70.0846 31.3851 70.1493C31.3518 70.2146 31.3351 70.2907 31.3351 70.3774V71.9882H31.7051V72.2183H30.5552V71.9882H30.9252V70.5825C30.9252 70.1023 30.7285 69.8621 30.3352 69.8621C30.2585 69.8621 30.1852 69.8728 30.1152 69.8942C30.0452 69.9162 29.9818 69.9479 29.9252 69.9892C29.8685 70.0312 29.8235 70.0846 29.7902 70.1493C29.7568 70.2146 29.7402 70.2907 29.7402 70.3774V71.9882H30.1102V72.2183H28.9602ZM36.2081 72.2783C36.0247 72.2783 35.8607 72.2456 35.7161 72.1803C35.5707 72.1156 35.4481 72.0249 35.3481 71.9081C35.2481 71.7914 35.1714 71.6497 35.1181 71.4829C35.0647 71.3162 35.0381 71.1311 35.0381 70.9277C35.0381 70.7276 35.0674 70.5448 35.1261 70.3794C35.1841 70.2146 35.2641 70.0722 35.3661 69.9522C35.4674 69.8321 35.5881 69.7394 35.7281 69.6741C35.8681 69.6094 36.0214 69.577 36.1881 69.577C36.358 69.577 36.5097 69.607 36.643 69.6671C36.7764 69.7271 36.889 69.8111 36.981 69.9192C37.0724 70.0279 37.143 70.1573 37.193 70.3074C37.243 70.4574 37.268 70.6208 37.268 70.7976V70.9126H35.4931V71.0427C35.4931 71.3262 35.5641 71.5496 35.7061 71.713C35.8474 71.8764 36.0364 71.9582 36.2731 71.9582C36.4797 71.9582 36.644 71.9155 36.766 71.8301C36.8874 71.7454 36.983 71.6347 37.053 71.4979L37.218 71.603C37.1847 71.6897 37.139 71.7737 37.081 71.8551C37.0224 71.9371 36.9514 72.0088 36.868 72.0702C36.7847 72.1322 36.688 72.1826 36.578 72.2213C36.468 72.2593 36.3447 72.2783 36.2081 72.2783ZM35.4931 70.6225V70.6825H36.838V70.6325C36.838 70.5158 36.8257 70.4074 36.801 70.3074C36.7757 70.2073 36.7364 70.1206 36.683 70.0472C36.6297 69.9739 36.5624 69.9162 36.481 69.8742C36.399 69.8328 36.3014 69.8121 36.1881 69.8121C36.0747 69.8121 35.9747 69.8321 35.8881 69.8721C35.8014 69.9122 35.7291 69.9689 35.6711 70.0422C35.6124 70.1156 35.5681 70.2013 35.5381 70.2994C35.5081 70.3981 35.4931 70.5058 35.4931 70.6225ZM40.091 72.2783C39.9343 72.2783 39.7976 72.2456 39.681 72.1803C39.5643 72.1156 39.4877 72.0432 39.451 71.9632H39.431V72.2183H39.131V71.4429H39.431V71.548C39.431 71.6914 39.476 71.8081 39.566 71.8981C39.656 71.9882 39.8043 72.0332 40.011 72.0332C40.201 72.0332 40.3486 71.9988 40.454 71.9301C40.5586 71.8621 40.611 71.7531 40.611 71.603C40.611 71.3695 40.4693 71.2211 40.186 71.1578L39.886 71.0927C39.6393 71.0394 39.4537 70.9493 39.329 70.8226C39.2037 70.6959 39.141 70.5225 39.141 70.3024C39.141 70.0756 39.2193 69.8978 39.376 69.7691C39.5327 69.641 39.7426 69.577 40.006 69.577C40.166 69.577 40.297 69.602 40.399 69.652C40.5003 69.7021 40.5676 69.7671 40.601 69.8471H40.621V69.637H40.921V70.4124H40.621V70.2223C40.621 69.9555 40.4343 69.8221 40.061 69.8221C39.891 69.8221 39.7586 69.8545 39.664 69.9192C39.5687 69.9845 39.521 70.0873 39.521 70.2273C39.521 70.344 39.5593 70.4414 39.636 70.5195C39.7127 70.5982 39.8176 70.6525 39.951 70.6825L40.231 70.7426C40.4876 70.7959 40.6803 70.8843 40.809 71.0077C40.937 71.1311 41.001 71.3028 41.001 71.5229C41.001 71.6297 40.9803 71.7287 40.939 71.8201C40.897 71.9121 40.837 71.9922 40.759 72.0602C40.6803 72.1289 40.5853 72.1826 40.474 72.2213C40.362 72.2593 40.2343 72.2783 40.091 72.2783ZM45.3329 72.2183V71.9882H45.7029V69.8822H45.3329V69.637H45.7029V69.2318C45.7029 69.1118 45.7229 69.0017 45.7629 68.9017C45.8029 68.8016 45.8589 68.7156 45.9309 68.6436C46.0022 68.5722 46.0872 68.5165 46.1859 68.4765C46.2839 68.4365 46.3912 68.4165 46.5079 68.4165C46.6878 68.4165 46.8305 68.4515 46.9358 68.5215C47.0405 68.5915 47.0928 68.6916 47.0928 68.8216C47.0928 68.9084 47.0688 68.9774 47.0208 69.0287C46.9722 69.0808 46.9095 69.1068 46.8328 69.1068C46.7595 69.1068 46.7005 69.0834 46.6558 69.0367C46.6105 68.9901 46.5878 68.9334 46.5878 68.8667C46.5878 68.7499 46.6328 68.6732 46.7228 68.6366V68.6266C46.6995 68.6199 46.6728 68.6149 46.6428 68.6115C46.6128 68.6082 46.5795 68.6065 46.5429 68.6065C46.4029 68.6065 46.2962 68.6566 46.2229 68.7566C46.1495 68.8567 46.1129 68.9967 46.1129 69.1768V69.637H46.6728V69.8822H46.1129V71.9882H46.5828V72.2183H45.3329ZM49.5358 72.0332C49.6591 72.0332 49.7668 72.0122 49.8588 71.9702C49.9501 71.9288 50.0251 71.8704 50.0838 71.7951C50.1418 71.7204 50.1851 71.632 50.2138 71.5299C50.2418 71.4286 50.2558 71.3178 50.2558 71.1978V70.6575C50.2558 70.5375 50.2418 70.4264 50.2138 70.3244C50.1851 70.223 50.1418 70.1346 50.0838 70.0592C50.0251 69.9845 49.9501 69.9262 49.8588 69.8842C49.7668 69.8428 49.6591 69.8221 49.5358 69.8221C49.4091 69.8221 49.3008 69.8428 49.2108 69.8842C49.1208 69.9262 49.0468 69.9845 48.9888 70.0592C48.9301 70.1346 48.8868 70.223 48.8588 70.3244C48.8301 70.4264 48.8158 70.5375 48.8158 70.6575V71.1978C48.8158 71.3178 48.8301 71.4286 48.8588 71.5299C48.8868 71.632 48.9301 71.7204 48.9888 71.7951C49.0468 71.8704 49.1208 71.9288 49.2108 71.9702C49.3008 72.0122 49.4091 72.0332 49.5358 72.0332ZM49.5358 72.2783C49.3591 72.2783 49.1975 72.2466 49.0508 72.1833C48.9041 72.1199 48.7791 72.0289 48.6758 71.9101C48.5725 71.7921 48.4925 71.6503 48.4358 71.4849C48.3791 71.3202 48.3508 71.1344 48.3508 70.9277C48.3508 70.7242 48.3791 70.5391 48.4358 70.3724C48.4925 70.2056 48.5725 70.0629 48.6758 69.9442C48.7791 69.8261 48.9041 69.7354 49.0508 69.6721C49.1975 69.6087 49.3591 69.577 49.5358 69.577C49.7125 69.577 49.8741 69.6087 50.0208 69.6721C50.1674 69.7354 50.2924 69.8261 50.3958 69.9442C50.4991 70.0629 50.5791 70.2056 50.6358 70.3724C50.6924 70.5391 50.7208 70.7242 50.7208 70.9277C50.7208 71.1344 50.6924 71.3202 50.6358 71.4849C50.5791 71.6503 50.4991 71.7921 50.3958 71.9101C50.2924 72.0289 50.1674 72.1199 50.0208 72.1833C49.8741 72.2466 49.7125 72.2783 49.5358 72.2783ZM52.5347 72.2183V71.9882H52.9047V69.9622L52.5347 69.8972V69.7271L53.3047 69.577V70.0272H53.3297C53.3531 69.9739 53.382 69.9205 53.4167 69.8671C53.452 69.8138 53.4954 69.7654 53.5467 69.7221C53.5987 69.6787 53.6587 69.6437 53.7267 69.617C53.7954 69.5903 53.8747 69.577 53.9647 69.577C54.1114 69.577 54.2287 69.612 54.3167 69.6821C54.4054 69.7521 54.4497 69.8538 54.4497 69.9872C54.4497 70.0873 54.4247 70.1656 54.3747 70.2223C54.3247 70.279 54.2597 70.3074 54.1797 70.3074C54.0897 70.3074 54.018 70.283 53.9647 70.2343C53.9114 70.1863 53.8847 70.1239 53.8847 70.0472C53.8847 69.9805 53.8987 69.9262 53.9267 69.8842C53.9554 69.8428 53.988 69.8188 54.0247 69.8121V69.8021C54.0114 69.7988 53.9947 69.7961 53.9747 69.7941C53.9547 69.7928 53.9297 69.7921 53.8997 69.7921C53.8297 69.7921 53.7597 69.8095 53.6897 69.8441C53.6197 69.8795 53.557 69.9245 53.5017 69.9792C53.447 70.0346 53.4021 70.0973 53.3667 70.1673C53.3321 70.2373 53.3147 70.3074 53.3147 70.3774V71.9882H53.7847V72.2183H52.5347ZM59.7306 72.2783C59.5473 72.2783 59.3833 72.2456 59.2386 72.1803C59.0933 72.1156 58.9706 72.0249 58.8706 71.9081C58.7706 71.7914 58.6939 71.6497 58.6406 71.4829C58.5873 71.3162 58.5606 71.1311 58.5606 70.9277C58.5606 70.7276 58.5899 70.5448 58.6486 70.3794C58.7066 70.2146 58.7866 70.0722 58.8886 69.9522C58.9899 69.8321 59.1106 69.7394 59.2506 69.6741C59.3906 69.6094 59.5439 69.577 59.7106 69.577C59.8806 69.577 60.0322 69.607 60.1656 69.6671C60.2989 69.7271 60.4116 69.8111 60.5036 69.9192C60.5949 70.0279 60.6656 70.1573 60.7156 70.3074C60.7656 70.4574 60.7906 70.6208 60.7906 70.7976V70.9126H59.0156V71.0427C59.0156 71.3262 59.0866 71.5496 59.2286 71.713C59.3699 71.8764 59.5589 71.9582 59.7956 71.9582C60.0023 71.9582 60.1666 71.9155 60.2886 71.8301C60.4099 71.7454 60.5056 71.6347 60.5756 71.4979L60.7406 71.603C60.7072 71.6897 60.6616 71.7737 60.6036 71.8551C60.5449 71.9371 60.4739 72.0088 60.3906 72.0702C60.3072 72.1322 60.2106 72.1826 60.1006 72.2213C59.9906 72.2593 59.8673 72.2783 59.7306 72.2783ZM59.0156 70.6225V70.6825H60.3606V70.6325C60.3606 70.5158 60.3482 70.4074 60.3236 70.3074C60.2982 70.2073 60.2589 70.1206 60.2056 70.0472C60.1522 69.9739 60.0849 69.9162 60.0036 69.8742C59.9216 69.8328 59.8239 69.8121 59.7106 69.8121C59.5973 69.8121 59.4973 69.8321 59.4106 69.8721C59.3239 69.9122 59.2516 69.9689 59.1936 70.0422C59.1349 70.1156 59.0906 70.2013 59.0606 70.2994C59.0306 70.3981 59.0156 70.5058 59.0156 70.6225ZM63.5345 72.2183L62.6245 69.8671H62.3645V69.637H63.4345V69.8671H63.0745L63.7695 71.7581H63.7895L64.4645 69.8671H64.1045V69.637H65.0145V69.8671H64.7545L63.8495 72.2183H63.5345ZM67.7074 72.2783C67.5241 72.2783 67.3601 72.2456 67.2154 72.1803C67.0701 72.1156 66.9474 72.0249 66.8475 71.9081C66.7475 71.7914 66.6708 71.6497 66.6175 71.4829C66.5641 71.3162 66.5375 71.1311 66.5375 70.9277C66.5375 70.7276 66.5668 70.5448 66.6255 70.3794C66.6835 70.2146 66.7635 70.0722 66.8654 69.9522C66.9668 69.8321 67.0874 69.7394 67.2274 69.6741C67.3674 69.6094 67.5208 69.577 67.6874 69.577C67.8574 69.577 68.0091 69.607 68.1424 69.6671C68.2758 69.7271 68.3884 69.8111 68.4804 69.9192C68.5717 70.0279 68.6424 70.1573 68.6924 70.3074C68.7424 70.4574 68.7674 70.6208 68.7674 70.7976V70.9126H66.9924V71.0427C66.9924 71.3262 67.0634 71.5496 67.2054 71.713C67.3468 71.8764 67.5358 71.9582 67.7724 71.9582C67.9791 71.9582 68.1434 71.9155 68.2654 71.8301C68.3868 71.7454 68.4824 71.6347 68.5524 71.4979L68.7174 71.603C68.6841 71.6897 68.6384 71.7737 68.5804 71.8551C68.5217 71.9371 68.4508 72.0088 68.3674 72.0702C68.2841 72.1322 68.1874 72.1826 68.0774 72.2213C67.9674 72.2593 67.8441 72.2783 67.7074 72.2783ZM66.9924 70.6225V70.6825H68.3374V70.6325C68.3374 70.5158 68.3251 70.4074 68.3004 70.3074C68.2751 70.2073 68.2358 70.1206 68.1824 70.0472C68.1291 69.9739 68.0618 69.9162 67.9804 69.8742C67.8984 69.8328 67.8008 69.8121 67.6874 69.8121C67.5741 69.8121 67.4741 69.8321 67.3874 69.8721C67.3008 69.9122 67.2284 69.9689 67.1704 70.0422C67.1118 70.1156 67.0674 70.2013 67.0374 70.2994C67.0074 70.3981 66.9924 70.5058 66.9924 70.6225ZM70.5804 72.2183V71.9882H70.9504V69.9622L70.5804 69.8972V69.7271L71.3504 69.577V70.0272H71.3754C71.3987 69.9739 71.428 69.9205 71.4634 69.8671C71.498 69.8138 71.5414 69.7654 71.5934 69.7221C71.6447 69.6787 71.7047 69.6437 71.7734 69.617C71.8414 69.5903 71.9204 69.577 72.0103 69.577C72.157 69.577 72.2747 69.612 72.3633 69.6821C72.4513 69.7521 72.4953 69.8538 72.4953 69.9872C72.4953 70.0873 72.4703 70.1656 72.4203 70.2223C72.3703 70.279 72.3053 70.3074 72.2253 70.3074C72.1353 70.3074 72.0637 70.283 72.0103 70.2343C71.957 70.1863 71.9304 70.1239 71.9304 70.0472C71.9304 69.9805 71.9447 69.9262 71.9734 69.8842C72.0014 69.8428 72.0337 69.8188 72.0703 69.8121V69.8021C72.057 69.7988 72.0403 69.7961 72.0203 69.7941C72.0003 69.7928 71.9753 69.7921 71.9453 69.7921C71.8754 69.7921 71.8054 69.8095 71.7354 69.8441C71.6654 69.8795 71.603 69.9245 71.5484 69.9792C71.493 70.0346 71.448 70.0973 71.4134 70.1673C71.378 70.2373 71.3604 70.3074 71.3604 70.3774V71.9882H71.8304V72.2183H70.5804ZM74.6493 73.2788C74.4793 73.2788 74.356 73.2431 74.2793 73.1717C74.2026 73.0997 74.1643 73.0053 74.1643 72.8886C74.1643 72.8019 74.1876 72.7319 74.2343 72.6785C74.281 72.6251 74.3476 72.5985 74.4343 72.5985C74.511 72.5985 74.57 72.6211 74.6113 72.6665C74.6533 72.7112 74.6743 72.7719 74.6743 72.8486C74.6743 72.9053 74.66 72.9513 74.6313 72.9866C74.6033 73.0213 74.5726 73.0437 74.5393 73.0537V73.0687C74.576 73.082 74.6193 73.0887 74.6693 73.0887C74.756 73.0887 74.841 73.0513 74.9243 72.9766C75.0076 72.9013 75.0826 72.7785 75.1493 72.6085L75.2543 72.3233L74.3043 69.8671H74.0443V69.637H75.1143V69.8671H74.7543L75.4493 71.7581H75.4693L76.1443 69.8671H75.7843V69.637H76.6943V69.8671H76.4343L75.3643 72.6485C75.2943 72.8319 75.2 72.983 75.0813 73.1017C74.9633 73.2198 74.8193 73.2788 74.6493 73.2788ZM79.4022 72.0332C79.5255 72.0332 79.6332 72.0122 79.7252 71.9702C79.8165 71.9288 79.8915 71.8704 79.9502 71.7951C80.0082 71.7204 80.0515 71.632 80.0802 71.5299C80.1082 71.4286 80.1222 71.3178 80.1222 71.1978V70.6575C80.1222 70.5375 80.1082 70.4264 80.0802 70.3244C80.0515 70.223 80.0082 70.1346 79.9502 70.0592C79.8915 69.9845 79.8165 69.9262 79.7252 69.8842C79.6332 69.8428 79.5255 69.8221 79.4022 69.8221C79.2755 69.8221 79.1672 69.8428 79.0772 69.8842C78.9872 69.9262 78.9132 69.9845 78.8552 70.0592C78.7965 70.1346 78.7532 70.223 78.7252 70.3244C78.6966 70.4264 78.6822 70.5375 78.6822 70.6575V71.1978C78.6822 71.3178 78.6966 71.4286 78.7252 71.5299C78.7532 71.632 78.7965 71.7204 78.8552 71.7951C78.9132 71.8704 78.9872 71.9288 79.0772 71.9702C79.1672 72.0122 79.2755 72.0332 79.4022 72.0332ZM79.4022 72.2783C79.2255 72.2783 79.0639 72.2466 78.9172 72.1833C78.7705 72.1199 78.6455 72.0289 78.5422 71.9101C78.4389 71.7921 78.3589 71.6503 78.3022 71.4849C78.2456 71.3202 78.2172 71.1344 78.2172 70.9277C78.2172 70.7242 78.2456 70.5391 78.3022 70.3724C78.3589 70.2056 78.4389 70.0629 78.5422 69.9442C78.6455 69.8261 78.7705 69.7354 78.9172 69.6721C79.0639 69.6087 79.2255 69.577 79.4022 69.577C79.5789 69.577 79.7405 69.6087 79.8872 69.6721C80.0339 69.7354 80.1589 69.8261 80.2622 69.9442C80.3655 70.0629 80.4455 70.2056 80.5022 70.3724C80.5588 70.5391 80.5872 70.7242 80.5872 70.9277C80.5872 71.1344 80.5588 71.3202 80.5022 71.4849C80.4455 71.6503 80.3655 71.7921 80.2622 71.9101C80.1589 72.0289 80.0339 72.1199 79.8872 72.1833C79.7405 72.2466 79.5789 72.2783 79.4022 72.2783ZM82.4001 72.2183V71.9882H82.7701V69.9622L82.4001 69.8972V69.7271L83.1701 69.577V70.0272H83.1901C83.2101 69.9772 83.2411 69.9255 83.2831 69.8721C83.3245 69.8188 83.3761 69.7704 83.4381 69.7271C83.4995 69.6837 83.5718 69.6477 83.6551 69.619C83.7384 69.591 83.8301 69.577 83.9301 69.577C84.2401 69.577 84.4628 69.6577 84.5981 69.8191C84.7328 69.9812 84.8001 70.224 84.8001 70.5475V71.9882H85.1701V72.2183H84.0201V71.9882H84.3901V70.5825C84.3901 70.1023 84.1884 69.8621 83.7851 69.8621C83.7118 69.8621 83.6395 69.8721 83.5681 69.8922C83.4961 69.9122 83.4311 69.9439 83.3731 69.9872C83.3145 70.0306 83.2678 70.0839 83.2331 70.1473C83.1978 70.2106 83.1801 70.2857 83.1801 70.3724V71.9882H83.5501V72.2183H82.4001ZM88.079 72.2783C87.8957 72.2783 87.7314 72.2456 87.586 72.1803C87.4414 72.1156 87.319 72.0249 87.219 71.9081C87.119 71.7914 87.0424 71.6497 86.9891 71.4829C86.9357 71.3162 86.909 71.1311 86.909 70.9277C86.909 70.7276 86.938 70.5448 86.996 70.3794C87.0547 70.2146 87.1347 70.0722 87.236 69.9522C87.338 69.8321 87.459 69.7394 87.599 69.6741C87.739 69.6094 87.8924 69.577 88.059 69.577C88.229 69.577 88.3807 69.607 88.514 69.6671C88.6474 69.7271 88.7597 69.8111 88.851 69.9192C88.943 70.0279 89.014 70.1573 89.064 70.3074C89.114 70.4574 89.139 70.6208 89.139 70.7976V70.9126H87.364V71.0427C87.364 71.3262 87.4347 71.5496 87.576 71.713C87.718 71.8764 87.9074 71.9582 88.144 71.9582C88.3507 71.9582 88.5147 71.9155 88.636 71.8301C88.758 71.7454 88.854 71.6347 88.924 71.4979L89.089 71.603C89.0557 71.6897 89.0097 71.7737 88.951 71.8551C88.893 71.9371 88.8223 72.0088 88.739 72.0702C88.6557 72.1322 88.559 72.1826 88.449 72.2213C88.339 72.2593 88.2157 72.2783 88.079 72.2783ZM87.364 70.6225V70.6825H88.709V70.6325C88.709 70.5158 88.6964 70.4074 88.671 70.3074C88.6464 70.2073 88.6074 70.1206 88.554 70.0472C88.5007 69.9739 88.433 69.9162 88.351 69.8742C88.2697 69.8328 88.1724 69.8121 88.059 69.8121C87.9457 69.8121 87.8457 69.8321 87.759 69.8721C87.6724 69.9122 87.5997 69.9689 87.541 70.0422C87.483 70.1156 87.439 70.2013 87.409 70.2994C87.379 70.3981 87.364 70.5058 87.364 70.6225Z" fill="#D9DAF0"/>
</g>
</g>
</g>
</g>
<g clip-path="url(#clip13_3_7)">
<g clip-path="url(#clip14_3_7)">
<path d="M66.3817 44.0669C66.3817 44.6879 65.8785 45.1914 65.2578 45.1914C64.637 45.1914 64.1339 44.6879 64.1339 44.0669C64.1339 43.4458 64.637 42.9424 65.2578 42.9424C65.8785 42.9424 66.3817 43.4458 66.3817 44.0669Z" fill="#D9DAF0"/>
<path d="M61.9704 44.0669C61.9704 44.6879 61.4672 45.1914 60.8465 45.1914C60.2257 45.1914 59.7226 44.6879 59.7226 44.0669C59.7226 43.4458 60.2257 42.9424 60.8465 42.9424C61.4672 42.9424 61.9704 43.4458 61.9704 44.0669Z" fill="#D9DAF0"/>
<path d="M64.2222 46.107C64.2222 46.7281 63.719 47.2315 63.0983 47.2315C62.4775 47.2315 61.9744 46.7281 61.9744 46.107C61.9744 45.486 62.4775 44.9826 63.0983 44.9826C63.719 44.9826 64.2222 45.486 64.2222 46.107Z" fill="#D9DAF0"/>
<path d="M64.2222 41.9985C64.2222 42.6196 63.719 43.123 63.0983 43.123C62.4775 43.123 61.9744 42.6196 61.9744 41.9985C61.9744 41.3775 62.4775 40.8741 63.0983 40.8741C63.719 40.8741 64.2222 41.3775 64.2222 41.9985Z" fill="#D9DAF0"/>
<path d="M70.0424 46.2677C69.8456 43.9063 69.669 43.0348 69.5447 42.1032C69.3319 40.5369 68.7458 39.1836 67.7906 38.2077C66.8394 37.2279 65.5148 36.6695 64.0175 36.6736C62.436 36.6736 61.0071 37.3483 59.9997 38.4126H49.9487C48.9413 37.3444 47.5123 36.6736 45.9307 36.6736C44.4334 36.6695 43.1088 37.2279 42.1576 38.2077C41.2022 39.1836 40.6161 40.5369 40.4035 42.1032C40.2751 43.0348 40.0984 43.9064 39.9057 46.2677C39.7732 47.866 39.6448 49.372 39.6448 50.7374C39.6448 51.4965 39.6849 52.2072 39.7933 52.8739C39.9538 53.8658 40.2709 54.7735 40.8932 55.4923C41.2022 55.8498 41.5835 56.1469 42.0291 56.3678C42.4748 56.5886 42.9763 56.7331 43.5305 56.8015C43.7031 56.8216 43.8716 56.8337 44.0402 56.8337C44.7908 56.8376 45.4932 56.6048 46.0793 56.2032C46.9663 55.6008 47.6167 54.6812 48.1746 53.5808C48.6521 52.629 49.0576 51.5246 49.4389 50.3319H60.5094C61.0351 51.9905 61.6132 53.4644 62.3679 54.6169C62.7894 55.2595 63.279 55.8055 63.8692 56.2032C64.4553 56.6009 65.1577 56.8337 65.9083 56.8337C66.0769 56.8337 66.2454 56.8216 66.4181 56.8015C67.1566 56.7091 67.8068 56.4842 68.3447 56.1188C68.7461 55.8498 69.0833 55.5043 69.3443 55.1148C69.7377 54.5284 69.9745 53.8498 70.115 53.1148C70.2554 52.3799 70.3077 51.5847 70.3077 50.7293C70.3037 49.3719 70.1752 47.8618 70.0427 46.2675L70.0424 46.2677ZM68.5693 52.6129C68.4368 53.4361 68.192 54.0385 67.8429 54.4362C67.6663 54.637 67.4656 54.7976 67.2045 54.9302C66.9436 55.0587 66.6225 55.1591 66.217 55.2113C66.1087 55.2234 66.0084 55.2314 65.9119 55.2314C65.4784 55.2275 65.1251 55.1148 64.768 54.8739C64.2341 54.5204 63.6963 53.8297 63.2105 52.8618C62.7249 51.898 62.2834 50.6692 61.8699 49.2956L61.6973 48.7254H48.2547L48.082 49.2956C47.5281 51.1268 46.926 52.6971 46.2396 53.7332C45.8984 54.2514 45.5412 54.6327 45.1839 54.8737C44.8226 55.1107 44.4734 55.2271 44.0399 55.2312C43.9436 55.2312 43.8392 55.2232 43.7348 55.2111C43.1929 55.1429 42.8036 54.9903 42.5025 54.7895C42.2777 54.6368 42.097 54.4522 41.9406 54.2192C41.7077 53.8699 41.5271 53.404 41.4148 52.8137C41.3026 52.2233 41.2502 51.5205 41.2543 50.7334C41.2543 49.4724 41.3788 47.9945 41.5113 46.3961C41.704 44.0708 41.8645 43.3159 42.0009 42.3159C42.1776 41.0107 42.6512 39.9987 43.3135 39.324C43.9758 38.6534 44.8228 38.2798 45.9385 38.2759C47.1668 38.2759 48.2586 38.8382 48.9811 39.7217L49.2219 40.0149H60.7379L60.9787 39.7217C61.7012 38.8382 62.793 38.2759 64.0213 38.2759C65.1372 38.2798 65.9841 38.6534 66.6465 39.324C67.3047 39.9987 67.7784 41.0107 67.959 42.3159C68.0954 43.3158 68.256 44.0708 68.4487 46.3961C68.5812 47.9945 68.7055 49.4683 68.7055 50.7334C68.6975 51.4362 68.6615 52.0666 68.5691 52.6129H68.5693Z" fill="#D9DAF0"/>
<path d="M44.2608 41.6813C43.7871 42.2395 43.5021 42.9584 43.5021 43.7456C43.5021 44.5849 43.8273 45.344 44.3571 45.9142L46.4243 43.846L44.2608 41.6813Z" fill="#D9DAF0"/>
<path d="M44.7345 46.2595C45.2764 46.6812 45.9508 46.9342 46.6893 46.9342C47.4759 46.9342 48.1945 46.6492 48.7525 46.1753L46.7857 44.2074L44.7347 46.2597L44.7345 46.2595Z" fill="#D9DAF0"/>
<path d="M48.8569 41.4084C48.287 40.8783 47.5283 40.5529 46.6894 40.5529C45.9028 40.5529 45.1842 40.838 44.6262 41.3119L46.7857 43.4766L48.8569 41.4084Z" fill="#D9DAF0"/>
<path d="M47.151 43.8419L49.1178 45.8097C49.5915 45.2516 49.8764 44.5326 49.8764 43.7455C49.8764 43.0066 49.6235 42.3319 49.202 41.7897L47.151 43.8419Z" fill="#D9DAF0"/>
</g>
</g>
</g>
</g>
</g>
</g>
</g>
</g>
</g>
<defs>
<clipPath id="clip0_3_7">
<rect width="110" height="110" fill="white"/>
</clipPath>
<clipPath id="clip1_3_7">
<rect width="110" height="110" fill="white" transform="translate(-0.0237427 -0.0237322)"/>
</clipPath>
<clipPath id="clip2_3_7">
<rect width="109.897" height="109.952" fill="white" transform="translate(0.0274658)"/>
</clipPath>
<clipPath id="clip3_3_7">
<rect width="109.897" height="109.952" fill="white" transform="translate(0.0274658)"/>
</clipPath>
<clipPath id="clip4_3_7">
<rect width="68.3257" height="36.6052" fill="white" transform="translate(20.8134 36.6736)"/>
</clipPath>
<clipPath id="clip5_3_7">
<rect width="68.3257" height="36.6052" fill="white" transform="translate(20.8134 36.6736)"/>
</clipPath>
<clipPath id="clip6_3_7">
<rect width="68.3257" height="36.6052" fill="white" transform="translate(20.8134 36.6736)"/>
</clipPath>
<clipPath id="clip7_3_7">
<rect width="68.3257" height="14.5876" fill="white" transform="translate(20.8134 58.6911)"/>
</clipPath>
<clipPath id="clip8_3_7">
<rect width="68.3257" height="14.5876" fill="white" transform="translate(20.8134 58.6911)"/>
</clipPath>
<clipPath id="clip9_3_7">
<rect width="68.3257" height="7.86788" fill="white" transform="translate(20.8134 58.6911)"/>
</clipPath>
<clipPath id="clip10_3_7">
<rect width="68.3257" height="7.86788" fill="white" transform="translate(20.8134 58.6911)"/>
</clipPath>
<clipPath id="clip11_3_7">
<rect width="68.3257" height="4.86235" fill="white" transform="translate(20.8134 68.4164)"/>
</clipPath>
<clipPath id="clip12_3_7">
<rect width="68.3257" height="4.86235" fill="white" transform="translate(20.8134 68.4164)"/>
</clipPath>
<clipPath id="clip13_3_7">
<rect width="30.6629" height="20.1601" fill="white" transform="translate(39.6448 36.6736)"/>
</clipPath>
<clipPath id="clip14_3_7">
<rect width="30.6629" height="20.1601" fill="white" transform="translate(39.6448 36.6736)"/>
</clipPath>
</defs>
</svg>
